ISO-10303-21;
HEADER;
/* Generated by software containing ST-Developer
 * from STEP Tools, Inc. (www.steptools.com) 
 */

FILE_DESCRIPTION(
/* description */ (''),
/* implementation_level */ '2;1');

FILE_NAME(
/* name */ 'casev2.step',
/* time_stamp */ '2025-12-07T00:45:52+05:30',
/* author */ (''),
/* organization */ (''),
/* preprocessor_version */ 'ST-DEVELOPER v20.1',
/* originating_system */ 'Autodesk Translation Framework v14.21.0.0',
/* authorisation */ '');

FILE_SCHEMA (('AUTOMOTIVE_DESIGN { 1 0 10303 214 3 1 1 }'));
ENDSEC;

DATA;
#10=MECHANICAL_DESIGN_GEOMETRIC_PRESENTATION_REPRESENTATION('',(#13),#2212);
#11=SHAPE_REPRESENTATION_RELATIONSHIP('SRR','None',#2218,#12);
#12=ADVANCED_BREP_SHAPE_REPRESENTATION('',(#14),#2211);
#13=STYLED_ITEM('',(#2227),#14);
#14=MANIFOLD_SOLID_BREP('Body1',#1342);
#15=CYLINDRICAL_SURFACE('',#1360,2.);
#16=CYLINDRICAL_SURFACE('',#1363,2.);
#17=CYLINDRICAL_SURFACE('',#1366,2.);
#18=CYLINDRICAL_SURFACE('',#1369,2.);
#19=CYLINDRICAL_SURFACE('',#1383,1.99999999999999);
#20=CYLINDRICAL_SURFACE('',#1388,2.);
#21=CYLINDRICAL_SURFACE('',#1393,1.99999999999999);
#22=CYLINDRICAL_SURFACE('',#1398,2.);
#23=CYLINDRICAL_SURFACE('',#1403,1.99999999999999);
#24=CYLINDRICAL_SURFACE('',#1432,1.00000000000065);
#25=CYLINDRICAL_SURFACE('',#1435,0.999999999999943);
#26=CYLINDRICAL_SURFACE('',#1440,1.);
#27=CYLINDRICAL_SURFACE('',#1445,1.);
#28=CYLINDRICAL_SURFACE('',#1448,0.999999999999943);
#29=CYLINDRICAL_SURFACE('',#1451,1.00000000000058);
#30=FACE_BOUND('',#172,.T.);
#31=FACE_BOUND('',#173,.T.);
#32=FACE_BOUND('',#174,.T.);
#33=FACE_BOUND('',#175,.T.);
#34=FACE_BOUND('',#176,.T.);
#35=FACE_BOUND('',#194,.T.);
#36=FACE_BOUND('',#198,.T.);
#37=FACE_BOUND('',#202,.T.);
#38=FACE_BOUND('',#206,.T.);
#39=FACE_BOUND('',#210,.T.);
#40=FACE_BOUND('',#254,.T.);
#41=FACE_BOUND('',#255,.T.);
#42=PLANE('',#1347);
#43=PLANE('',#1365);
#44=PLANE('',#1371);
#45=PLANE('',#1372);
#46=PLANE('',#1373);
#47=PLANE('',#1374);
#48=PLANE('',#1375);
#49=PLANE('',#1382);
#50=PLANE('',#1386);
#51=PLANE('',#1387);
#52=PLANE('',#1391);
#53=PLANE('',#1392);
#54=PLANE('',#1396);
#55=PLANE('',#1397);
#56=PLANE('',#1401);
#57=PLANE('',#1402);
#58=PLANE('',#1406);
#59=PLANE('',#1407);
#60=PLANE('',#1408);
#61=PLANE('',#1409);
#62=PLANE('',#1410);
#63=PLANE('',#1411);
#64=PLANE('',#1412);
#65=PLANE('',#1413);
#66=PLANE('',#1414);
#67=PLANE('',#1415);
#68=PLANE('',#1416);
#69=PLANE('',#1417);
#70=PLANE('',#1418);
#71=PLANE('',#1419);
#72=PLANE('',#1420);
#73=PLANE('',#1421);
#74=PLANE('',#1422);
#75=PLANE('',#1423);
#76=PLANE('',#1424);
#77=PLANE('',#1425);
#78=PLANE('',#1426);
#79=PLANE('',#1427);
#80=PLANE('',#1428);
#81=PLANE('',#1429);
#82=PLANE('',#1430);
#83=PLANE('',#1431);
#84=PLANE('',#1434);
#85=PLANE('',#1437);
#86=PLANE('',#1438);
#87=PLANE('',#1439);
#88=PLANE('',#1442);
#89=PLANE('',#1443);
#90=PLANE('',#1444);
#91=PLANE('',#1447);
#92=PLANE('',#1450);
#93=PLANE('',#1453);
#94=PLANE('',#1454);
#95=PLANE('',#1455);
#96=FACE_OUTER_BOUND('',#170,.T.);
#97=FACE_OUTER_BOUND('',#171,.T.);
#98=FACE_OUTER_BOUND('',#177,.T.);
#99=FACE_OUTER_BOUND('',#178,.T.);
#100=FACE_OUTER_BOUND('',#179,.T.);
#101=FACE_OUTER_BOUND('',#180,.T.);
#102=FACE_OUTER_BOUND('',#181,.T.);
#103=FACE_OUTER_BOUND('',#182,.T.);
#104=FACE_OUTER_BOUND('',#183,.T.);
#105=FACE_OUTER_BOUND('',#184,.T.);
#106=FACE_OUTER_BOUND('',#185,.T.);
#107=FACE_OUTER_BOUND('',#186,.T.);
#108=FACE_OUTER_BOUND('',#187,.T.);
#109=FACE_OUTER_BOUND('',#188,.T.);
#110=FACE_OUTER_BOUND('',#189,.T.);
#111=FACE_OUTER_BOUND('',#190,.T.);
#112=FACE_OUTER_BOUND('',#191,.T.);
#113=FACE_OUTER_BOUND('',#192,.T.);
#114=FACE_OUTER_BOUND('',#193,.T.);
#115=FACE_OUTER_BOUND('',#195,.T.);
#116=FACE_OUTER_BOUND('',#196,.T.);
#117=FACE_OUTER_BOUND('',#197,.T.);
#118=FACE_OUTER_BOUND('',#199,.T.);
#119=FACE_OUTER_BOUND('',#200,.T.);
#120=FACE_OUTER_BOUND('',#201,.T.);
#121=FACE_OUTER_BOUND('',#203,.T.);
#122=FACE_OUTER_BOUND('',#204,.T.);
#123=FACE_OUTER_BOUND('',#205,.T.);
#124=FACE_OUTER_BOUND('',#207,.T.);
#125=FACE_OUTER_BOUND('',#208,.T.);
#126=FACE_OUTER_BOUND('',#209,.T.);
#127=FACE_OUTER_BOUND('',#211,.T.);
#128=FACE_OUTER_BOUND('',#212,.T.);
#129=FACE_OUTER_BOUND('',#213,.T.);
#130=FACE_OUTER_BOUND('',#214,.T.);
#131=FACE_OUTER_BOUND('',#215,.T.);
#132=FACE_OUTER_BOUND('',#216,.T.);
#133=FACE_OUTER_BOUND('',#217,.T.);
#134=FACE_OUTER_BOUND('',#218,.T.);
#135=FACE_OUTER_BOUND('',#219,.T.);
#136=FACE_OUTER_BOUND('',#220,.T.);
#137=FACE_OUTER_BOUND('',#221,.T.);
#138=FACE_OUTER_BOUND('',#222,.T.);
#139=FACE_OUTER_BOUND('',#223,.T.);
#140=FACE_OUTER_BOUND('',#224,.T.);
#141=FACE_OUTER_BOUND('',#225,.T.);
#142=FACE_OUTER_BOUND('',#226,.T.);
#143=FACE_OUTER_BOUND('',#227,.T.);
#144=FACE_OUTER_BOUND('',#228,.T.);
#145=FACE_OUTER_BOUND('',#229,.T.);
#146=FACE_OUTER_BOUND('',#230,.T.);
#147=FACE_OUTER_BOUND('',#231,.T.);
#148=FACE_OUTER_BOUND('',#232,.T.);
#149=FACE_OUTER_BOUND('',#233,.T.);
#150=FACE_OUTER_BOUND('',#234,.T.);
#151=FACE_OUTER_BOUND('',#235,.T.);
#152=FACE_OUTER_BOUND('',#236,.T.);
#153=FACE_OUTER_BOUND('',#237,.T.);
#154=FACE_OUTER_BOUND('',#238,.T.);
#155=FACE_OUTER_BOUND('',#239,.T.);
#156=FACE_OUTER_BOUND('',#240,.T.);
#157=FACE_OUTER_BOUND('',#241,.T.);
#158=FACE_OUTER_BOUND('',#242,.T.);
#159=FACE_OUTER_BOUND('',#243,.T.);
#160=FACE_OUTER_BOUND('',#244,.T.);
#161=FACE_OUTER_BOUND('',#245,.T.);
#162=FACE_OUTER_BOUND('',#246,.T.);
#163=FACE_OUTER_BOUND('',#247,.T.);
#164=FACE_OUTER_BOUND('',#248,.T.);
#165=FACE_OUTER_BOUND('',#249,.T.);
#166=FACE_OUTER_BOUND('',#250,.T.);
#167=FACE_OUTER_BOUND('',#251,.T.);
#168=FACE_OUTER_BOUND('',#252,.T.);
#169=FACE_OUTER_BOUND('',#253,.T.);
#170=EDGE_LOOP('',(#893,#894,#895,#896));
#171=EDGE_LOOP('',(#897,#898,#899,#900,#901,#902,#903));
#172=EDGE_LOOP('',(#904));
#173=EDGE_LOOP('',(#905));
#174=EDGE_LOOP('',(#906));
#175=EDGE_LOOP('',(#907));
#176=EDGE_LOOP('',(#908));
#177=EDGE_LOOP('',(#909,#910,#911,#912));
#178=EDGE_LOOP('',(#913,#914,#915,#916));
#179=EDGE_LOOP('',(#917,#918,#919,#920));
#180=EDGE_LOOP('',(#921,#922,#923,#924));
#181=EDGE_LOOP('',(#925,#926,#927,#928));
#182=EDGE_LOOP('',(#929,#930,#931,#932));
#183=EDGE_LOOP('',(#933,#934,#935,#936,#937,#938));
#184=EDGE_LOOP('',(#939,#940,#941,#942));
#185=EDGE_LOOP('',(#943,#944,#945,#946));
#186=EDGE_LOOP('',(#947,#948,#949,#950));
#187=EDGE_LOOP('',(#951,#952,#953,#954));
#188=EDGE_LOOP('',(#955,#956,#957,#958));
#189=EDGE_LOOP('',(#959,#960,#961,#962));
#190=EDGE_LOOP('',(#963,#964,#965,#966,#967,#968,#969,#970,#971,#972,#973,
#974,#975,#976,#977,#978,#979,#980,#981,#982,#983,#984,#985,#986,#987,#988,
#989,#990,#991,#992,#993,#994,#995,#996,#997));
#191=EDGE_LOOP('',(#998,#999,#1000,#1001,#1002,#1003,#1004,#1005,#1006,
#1007));
#192=EDGE_LOOP('',(#1008,#1009,#1010,#1011));
#193=EDGE_LOOP('',(#1012));
#194=EDGE_LOOP('',(#1013));
#195=EDGE_LOOP('',(#1014));
#196=EDGE_LOOP('',(#1015,#1016,#1017,#1018));
#197=EDGE_LOOP('',(#1019));
#198=EDGE_LOOP('',(#1020));
#199=EDGE_LOOP('',(#1021));
#200=EDGE_LOOP('',(#1022,#1023,#1024,#1025));
#201=EDGE_LOOP('',(#1026));
#202=EDGE_LOOP('',(#1027));
#203=EDGE_LOOP('',(#1028));
#204=EDGE_LOOP('',(#1029,#1030,#1031,#1032));
#205=EDGE_LOOP('',(#1033));
#206=EDGE_LOOP('',(#1034));
#207=EDGE_LOOP('',(#1035));
#208=EDGE_LOOP('',(#1036,#1037,#1038,#1039));
#209=EDGE_LOOP('',(#1040));
#210=EDGE_LOOP('',(#1041));
#211=EDGE_LOOP('',(#1042,#1043,#1044,#1045));
#212=EDGE_LOOP('',(#1046,#1047,#1048,#1049));
#213=EDGE_LOOP('',(#1050,#1051,#1052,#1053));
#214=EDGE_LOOP('',(#1054,#1055,#1056,#1057,#1058,#1059));
#215=EDGE_LOOP('',(#1060,#1061,#1062,#1063));
#216=EDGE_LOOP('',(#1064,#1065,#1066,#1067));
#217=EDGE_LOOP('',(#1068,#1069,#1070,#1071));
#218=EDGE_LOOP('',(#1072,#1073,#1074,#1075));
#219=EDGE_LOOP('',(#1076,#1077,#1078,#1079));
#220=EDGE_LOOP('',(#1080,#1081,#1082,#1083,#1084));
#221=EDGE_LOOP('',(#1085,#1086,#1087,#1088));
#222=EDGE_LOOP('',(#1089,#1090,#1091,#1092,#1093));
#223=EDGE_LOOP('',(#1094,#1095,#1096,#1097,#1098));
#224=EDGE_LOOP('',(#1099,#1100,#1101,#1102,#1103,#1104,#1105,#1106,#1107,
#1108,#1109,#1110,#1111,#1112,#1113,#1114,#1115,#1116,#1117,#1118,#1119,
#1120,#1121));
#225=EDGE_LOOP('',(#1122,#1123,#1124,#1125));
#226=EDGE_LOOP('',(#1126,#1127,#1128,#1129));
#227=EDGE_LOOP('',(#1130,#1131,#1132,#1133));
#228=EDGE_LOOP('',(#1134,#1135,#1136,#1137,#1138,#1139,#1140,#1141,#1142,
#1143));
#229=EDGE_LOOP('',(#1144,#1145,#1146,#1147));
#230=EDGE_LOOP('',(#1148,#1149,#1150,#1151,#1152,#1153));
#231=EDGE_LOOP('',(#1154,#1155,#1156,#1157));
#232=EDGE_LOOP('',(#1158,#1159,#1160,#1161));
#233=EDGE_LOOP('',(#1162,#1163,#1164,#1165));
#234=EDGE_LOOP('',(#1166,#1167,#1168,#1169));
#235=EDGE_LOOP('',(#1170,#1171,#1172,#1173));
#236=EDGE_LOOP('',(#1174,#1175,#1176,#1177));
#237=EDGE_LOOP('',(#1178,#1179,#1180,#1181));
#238=EDGE_LOOP('',(#1182,#1183,#1184,#1185));
#239=EDGE_LOOP('',(#1186,#1187,#1188,#1189));
#240=EDGE_LOOP('',(#1190,#1191,#1192,#1193));
#241=EDGE_LOOP('',(#1194,#1195,#1196,#1197));
#242=EDGE_LOOP('',(#1198,#1199,#1200,#1201));
#243=EDGE_LOOP('',(#1202,#1203,#1204,#1205));
#244=EDGE_LOOP('',(#1206,#1207,#1208,#1209));
#245=EDGE_LOOP('',(#1210,#1211,#1212,#1213));
#246=EDGE_LOOP('',(#1214,#1215,#1216,#1217));
#247=EDGE_LOOP('',(#1218,#1219,#1220,#1221));
#248=EDGE_LOOP('',(#1222,#1223,#1224,#1225));
#249=EDGE_LOOP('',(#1226,#1227,#1228,#1229));
#250=EDGE_LOOP('',(#1230,#1231,#1232,#1233));
#251=EDGE_LOOP('',(#1234,#1235,#1236,#1237));
#252=EDGE_LOOP('',(#1238));
#253=EDGE_LOOP('',(#1239,#1240,#1241,#1242,#1243,#1244,#1245,#1246,#1247,
#1248,#1249,#1250,#1251,#1252,#1253,#1254,#1255));
#254=EDGE_LOOP('',(#1256,#1257,#1258));
#255=EDGE_LOOP('',(#1259,#1260,#1261,#1262));
#256=LINE('',#1834,#403);
#257=LINE('',#1839,#404);
#258=LINE('',#1841,#405);
#259=LINE('',#1843,#406);
#260=LINE('',#1845,#407);
#261=LINE('',#1847,#408);
#262=LINE('',#1849,#409);
#263=LINE('',#1850,#410);
#264=LINE('',#1861,#411);
#265=LINE('',#1865,#412);
#266=LINE('',#1869,#413);
#267=LINE('',#1873,#414);
#268=LINE('',#1880,#415);
#269=LINE('',#1883,#416);
#270=LINE('',#1886,#417);
#271=LINE('',#1889,#418);
#272=LINE('',#1892,#419);
#273=LINE('',#1894,#420);
#274=LINE('',#1896,#421);
#275=LINE('',#1897,#422);
#276=LINE('',#1903,#423);
#277=LINE('',#1906,#424);
#278=LINE('',#1910,#425);
#279=LINE('',#1912,#426);
#280=LINE('',#1913,#427);
#281=LINE('',#1916,#428);
#282=LINE('',#1917,#429);
#283=LINE('',#1920,#430);
#284=LINE('',#1922,#431);
#285=LINE('',#1923,#432);
#286=LINE('',#1926,#433);
#287=LINE('',#1927,#434);
#288=LINE('',#1930,#435);
#289=LINE('',#1934,#436);
#290=LINE('',#1936,#437);
#291=LINE('',#1938,#438);
#292=LINE('',#1942,#439);
#293=LINE('',#1944,#440);
#294=LINE('',#1946,#441);
#295=LINE('',#1950,#442);
#296=LINE('',#1954,#443);
#297=LINE('',#1958,#444);
#298=LINE('',#1962,#445);
#299=LINE('',#1963,#446);
#300=LINE('',#1965,#447);
#301=LINE('',#1967,#448);
#302=LINE('',#1969,#449);
#303=LINE('',#1971,#450);
#304=LINE('',#1973,#451);
#305=LINE('',#1975,#452);
#306=LINE('',#1977,#453);
#307=LINE('',#1979,#454);
#308=LINE('',#1981,#455);
#309=LINE('',#1983,#456);
#310=LINE('',#1985,#457);
#311=LINE('',#1987,#458);
#312=LINE('',#1988,#459);
#313=LINE('',#1991,#460);
#314=LINE('',#1993,#461);
#315=LINE('',#1994,#462);
#316=LINE('',#1999,#463);
#317=LINE('',#2007,#464);
#318=LINE('',#2015,#465);
#319=LINE('',#2023,#466);
#320=LINE('',#2031,#467);
#321=LINE('',#2037,#468);
#322=LINE('',#2039,#469);
#323=LINE('',#2041,#470);
#324=LINE('',#2042,#471);
#325=LINE('',#2045,#472);
#326=LINE('',#2047,#473);
#327=LINE('',#2048,#474);
#328=LINE('',#2052,#475);
#329=LINE('',#2053,#476);
#330=LINE('',#2054,#477);
#331=LINE('',#2057,#478);
#332=LINE('',#2058,#479);
#333=LINE('',#2059,#480);
#334=LINE('',#2062,#481);
#335=LINE('',#2064,#482);
#336=LINE('',#2065,#483);
#337=LINE('',#2068,#484);
#338=LINE('',#2069,#485);
#339=LINE('',#2072,#486);
#340=LINE('',#2073,#487);
#341=LINE('',#2074,#488);
#342=LINE('',#2077,#489);
#343=LINE('',#2078,#490);
#344=LINE('',#2080,#491);
#345=LINE('',#2084,#492);
#346=LINE('',#2085,#493);
#347=LINE('',#2087,#494);
#348=LINE('',#2088,#495);
#349=LINE('',#2091,#496);
#350=LINE('',#2093,#497);
#351=LINE('',#2094,#498);
#352=LINE('',#2097,#499);
#353=LINE('',#2099,#500);
#354=LINE('',#2100,#501);
#355=LINE('',#2102,#502);
#356=LINE('',#2103,#503);
#357=LINE('',#2106,#504);
#358=LINE('',#2108,#505);
#359=LINE('',#2110,#506);
#360=LINE('',#2112,#507);
#361=LINE('',#2114,#508);
#362=LINE('',#2115,#509);
#363=LINE('',#2117,#510);
#364=LINE('',#2119,#511);
#365=LINE('',#2121,#512);
#366=LINE('',#2122,#513);
#367=LINE('',#2124,#514);
#368=LINE('',#2125,#515);
#369=LINE('',#2127,#516);
#370=LINE('',#2129,#517);
#371=LINE('',#2131,#518);
#372=LINE('',#2132,#519);
#373=LINE('',#2134,#520);
#374=LINE('',#2136,#521);
#375=LINE('',#2138,#522);
#376=LINE('',#2140,#523);
#377=LINE('',#2142,#524);
#378=LINE('',#2149,#525);
#379=LINE('',#2150,#526);
#380=LINE('',#2153,#527);
#381=LINE('',#2154,#528);
#382=LINE('',#2158,#529);
#383=LINE('',#2161,#530);
#384=LINE('',#2162,#531);
#385=LINE('',#2165,#532);
#386=LINE('',#2166,#533);
#387=LINE('',#2169,#534);
#388=LINE('',#2170,#535);
#389=LINE('',#2174,#536);
#390=LINE('',#2177,#537);
#391=LINE('',#2178,#538);
#392=LINE('',#2181,#539);
#393=LINE('',#2182,#540);
#394=LINE('',#2185,#541);
#395=LINE('',#2186,#542);
#396=LINE('',#2191,#543);
#397=LINE('',#2192,#544);
#398=LINE('',#2196,#545);
#399=LINE('',#2199,#546);
#400=LINE('',#2200,#547);
#401=LINE('',#2204,#548);
#402=LINE('',#2206,#549);
#403=VECTOR('',#1462,6.50000000000002);
#404=VECTOR('',#1467,10.);
#405=VECTOR('',#1468,10.);
#406=VECTOR('',#1469,10.);
#407=VECTOR('',#1470,10.);
#408=VECTOR('',#1471,10.);
#409=VECTOR('',#1472,10.);
#410=VECTOR('',#1473,10.);
#411=VECTOR('',#1484,6.49999999999999);
#412=VECTOR('',#1489,6.5);
#413=VECTOR('',#1494,6.5);
#414=VECTOR('',#1499,6.50000000000002);
#415=VECTOR('',#1506,10.);
#416=VECTOR('',#1509,10.);
#417=VECTOR('',#1512,10.);
#418=VECTOR('',#1515,10.);
#419=VECTOR('',#1518,10.);
#420=VECTOR('',#1519,10.);
#421=VECTOR('',#1520,10.);
#422=VECTOR('',#1521,10.);
#423=VECTOR('',#1528,10.);
#424=VECTOR('',#1531,10.);
#425=VECTOR('',#1536,10.);
#426=VECTOR('',#1537,10.);
#427=VECTOR('',#1538,10.);
#428=VECTOR('',#1541,10.);
#429=VECTOR('',#1542,10.);
#430=VECTOR('',#1545,10.);
#431=VECTOR('',#1546,10.);
#432=VECTOR('',#1547,10.);
#433=VECTOR('',#1550,10.);
#434=VECTOR('',#1551,10.);
#435=VECTOR('',#1554,10.);
#436=VECTOR('',#1557,10.);
#437=VECTOR('',#1558,10.);
#438=VECTOR('',#1559,10.);
#439=VECTOR('',#1562,10.);
#440=VECTOR('',#1563,10.);
#441=VECTOR('',#1564,10.);
#442=VECTOR('',#1567,10.);
#443=VECTOR('',#1570,10.);
#444=VECTOR('',#1573,10.);
#445=VECTOR('',#1576,10.);
#446=VECTOR('',#1577,10.);
#447=VECTOR('',#1578,10.);
#448=VECTOR('',#1579,10.);
#449=VECTOR('',#1580,10.);
#450=VECTOR('',#1581,10.);
#451=VECTOR('',#1582,10.);
#452=VECTOR('',#1583,10.);
#453=VECTOR('',#1584,10.);
#454=VECTOR('',#1585,10.);
#455=VECTOR('',#1586,10.);
#456=VECTOR('',#1587,10.);
#457=VECTOR('',#1588,10.);
#458=VECTOR('',#1589,10.);
#459=VECTOR('',#1590,10.);
#460=VECTOR('',#1593,10.);
#461=VECTOR('',#1594,10.);
#462=VECTOR('',#1595,10.);
#463=VECTOR('',#1600,1.99999999999999);
#464=VECTOR('',#1611,2.);
#465=VECTOR('',#1622,1.99999999999999);
#466=VECTOR('',#1633,2.);
#467=VECTOR('',#1644,1.99999999999999);
#468=VECTOR('',#1651,10.);
#469=VECTOR('',#1652,10.);
#470=VECTOR('',#1653,10.);
#471=VECTOR('',#1654,10.);
#472=VECTOR('',#1657,10.);
#473=VECTOR('',#1658,10.);
#474=VECTOR('',#1659,10.);
#475=VECTOR('',#1662,10.);
#476=VECTOR('',#1663,10.);
#477=VECTOR('',#1664,10.);
#478=VECTOR('',#1667,10.);
#479=VECTOR('',#1668,10.);
#480=VECTOR('',#1669,10.);
#481=VECTOR('',#1672,10.);
#482=VECTOR('',#1673,10.);
#483=VECTOR('',#1674,10.);
#484=VECTOR('',#1677,10.);
#485=VECTOR('',#1678,10.);
#486=VECTOR('',#1681,10.);
#487=VECTOR('',#1682,10.);
#488=VECTOR('',#1683,10.);
#489=VECTOR('',#1686,10.);
#490=VECTOR('',#1687,10.);
#491=VECTOR('',#1690,10.);
#492=VECTOR('',#1693,10.);
#493=VECTOR('',#1694,10.);
#494=VECTOR('',#1695,10.);
#495=VECTOR('',#1696,10.);
#496=VECTOR('',#1699,10.);
#497=VECTOR('',#1700,10.);
#498=VECTOR('',#1701,10.);
#499=VECTOR('',#1704,10.);
#500=VECTOR('',#1705,10.);
#501=VECTOR('',#1706,10.);
#502=VECTOR('',#1709,10.);
#503=VECTOR('',#1710,10.);
#504=VECTOR('',#1713,10.);
#505=VECTOR('',#1714,10.);
#506=VECTOR('',#1715,10.);
#507=VECTOR('',#1716,10.);
#508=VECTOR('',#1717,10.);
#509=VECTOR('',#1718,10.);
#510=VECTOR('',#1719,10.);
#511=VECTOR('',#1720,10.);
#512=VECTOR('',#1721,10.);
#513=VECTOR('',#1722,10.);
#514=VECTOR('',#1725,10.);
#515=VECTOR('',#1726,10.);
#516=VECTOR('',#1729,10.);
#517=VECTOR('',#1732,10.);
#518=VECTOR('',#1735,10.);
#519=VECTOR('',#1736,10.);
#520=VECTOR('',#1739,10.);
#521=VECTOR('',#1742,10.);
#522=VECTOR('',#1745,10.);
#523=VECTOR('',#1748,10.);
#524=VECTOR('',#1751,10.);
#525=VECTOR('',#1760,10.);
#526=VECTOR('',#1761,10.);
#527=VECTOR('',#1764,10.);
#528=VECTOR('',#1765,10.);
#529=VECTOR('',#1770,10.);
#530=VECTOR('',#1773,10.);
#531=VECTOR('',#1774,10.);
#532=VECTOR('',#1777,10.);
#533=VECTOR('',#1778,10.);
#534=VECTOR('',#1781,10.);
#535=VECTOR('',#1782,10.);
#536=VECTOR('',#1787,10.);
#537=VECTOR('',#1790,10.);
#538=VECTOR('',#1791,10.);
#539=VECTOR('',#1794,10.);
#540=VECTOR('',#1795,10.);
#541=VECTOR('',#1798,10.);
#542=VECTOR('',#1799,10.);
#543=VECTOR('',#1806,10.);
#544=VECTOR('',#1807,10.);
#545=VECTOR('',#1812,10.);
#546=VECTOR('',#1815,10.);
#547=VECTOR('',#1816,10.);
#548=VECTOR('',#1821,10.);
#549=VECTOR('',#1824,10.);
#550=CIRCLE('',#1345,9.50000000000003);
#551=CIRCLE('',#1346,3.50000000000001);
#552=CIRCLE('',#1348,9.49999999999999);
#553=CIRCLE('',#1349,9.5);
#554=CIRCLE('',#1350,9.50000000000003);
#555=CIRCLE('',#1351,9.5);
#556=CIRCLE('',#1353,3.5);
#557=CIRCLE('',#1355,3.5);
#558=CIRCLE('',#1357,3.5);
#559=CIRCLE('',#1359,3.50000000000001);
#560=CIRCLE('',#1361,2.0000000000001);
#561=CIRCLE('',#1362,2.);
#562=CIRCLE('',#1364,2.);
#563=CIRCLE('',#1367,1.99999999999993);
#564=CIRCLE('',#1368,2.);
#565=CIRCLE('',#1370,2.);
#566=CIRCLE('',#1376,1.);
#567=CIRCLE('',#1377,1.);
#568=CIRCLE('',#1378,0.999999999999943);
#569=CIRCLE('',#1379,1.00000000000065);
#570=CIRCLE('',#1380,1.00000000000058);
#571=CIRCLE('',#1381,0.999999999999943);
#572=CIRCLE('',#1384,1.99999999999999);
#573=CIRCLE('',#1385,1.99999999999999);
#574=CIRCLE('',#1389,2.);
#575=CIRCLE('',#1390,2.);
#576=CIRCLE('',#1394,1.99999999999999);
#577=CIRCLE('',#1395,1.99999999999999);
#578=CIRCLE('',#1399,2.);
#579=CIRCLE('',#1400,2.);
#580=CIRCLE('',#1404,1.99999999999999);
#581=CIRCLE('',#1405,1.99999999999999);
#582=CIRCLE('',#1433,1.00000000000065);
#583=CIRCLE('',#1436,0.999999999999943);
#584=CIRCLE('',#1441,1.);
#585=CIRCLE('',#1446,1.);
#586=CIRCLE('',#1449,0.999999999999943);
#587=CIRCLE('',#1452,1.00000000000058);
#588=VERTEX_POINT('',#1831);
#589=VERTEX_POINT('',#1833);
#590=VERTEX_POINT('',#1837);
#591=VERTEX_POINT('',#1838);
#592=VERTEX_POINT('',#1840);
#593=VERTEX_POINT('',#1842);
#594=VERTEX_POINT('',#1844);
#595=VERTEX_POINT('',#1846);
#596=VERTEX_POINT('',#1848);
#597=VERTEX_POINT('',#1851);
#598=VERTEX_POINT('',#1853);
#599=VERTEX_POINT('',#1855);
#600=VERTEX_POINT('',#1857);
#601=VERTEX_POINT('',#1860);
#602=VERTEX_POINT('',#1864);
#603=VERTEX_POINT('',#1868);
#604=VERTEX_POINT('',#1872);
#605=VERTEX_POINT('',#1876);
#606=VERTEX_POINT('',#1877);
#607=VERTEX_POINT('',#1879);
#608=VERTEX_POINT('',#1881);
#609=VERTEX_POINT('',#1885);
#610=VERTEX_POINT('',#1887);
#611=VERTEX_POINT('',#1891);
#612=VERTEX_POINT('',#1893);
#613=VERTEX_POINT('',#1895);
#614=VERTEX_POINT('',#1899);
#615=VERTEX_POINT('',#1901);
#616=VERTEX_POINT('',#1905);
#617=VERTEX_POINT('',#1909);
#618=VERTEX_POINT('',#1911);
#619=VERTEX_POINT('',#1915);
#620=VERTEX_POINT('',#1919);
#621=VERTEX_POINT('',#1921);
#622=VERTEX_POINT('',#1925);
#623=VERTEX_POINT('',#1929);
#624=VERTEX_POINT('',#1931);
#625=VERTEX_POINT('',#1933);
#626=VERTEX_POINT('',#1935);
#627=VERTEX_POINT('',#1937);
#628=VERTEX_POINT('',#1939);
#629=VERTEX_POINT('',#1941);
#630=VERTEX_POINT('',#1943);
#631=VERTEX_POINT('',#1945);
#632=VERTEX_POINT('',#1947);
#633=VERTEX_POINT('',#1949);
#634=VERTEX_POINT('',#1951);
#635=VERTEX_POINT('',#1953);
#636=VERTEX_POINT('',#1955);
#637=VERTEX_POINT('',#1957);
#638=VERTEX_POINT('',#1959);
#639=VERTEX_POINT('',#1961);
#640=VERTEX_POINT('',#1964);
#641=VERTEX_POINT('',#1966);
#642=VERTEX_POINT('',#1968);
#643=VERTEX_POINT('',#1970);
#644=VERTEX_POINT('',#1972);
#645=VERTEX_POINT('',#1974);
#646=VERTEX_POINT('',#1976);
#647=VERTEX_POINT('',#1978);
#648=VERTEX_POINT('',#1980);
#649=VERTEX_POINT('',#1982);
#650=VERTEX_POINT('',#1984);
#651=VERTEX_POINT('',#1986);
#652=VERTEX_POINT('',#1990);
#653=VERTEX_POINT('',#1992);
#654=VERTEX_POINT('',#1996);
#655=VERTEX_POINT('',#1998);
#656=VERTEX_POINT('',#2004);
#657=VERTEX_POINT('',#2006);
#658=VERTEX_POINT('',#2012);
#659=VERTEX_POINT('',#2014);
#660=VERTEX_POINT('',#2020);
#661=VERTEX_POINT('',#2022);
#662=VERTEX_POINT('',#2028);
#663=VERTEX_POINT('',#2030);
#664=VERTEX_POINT('',#2035);
#665=VERTEX_POINT('',#2036);
#666=VERTEX_POINT('',#2038);
#667=VERTEX_POINT('',#2040);
#668=VERTEX_POINT('',#2044);
#669=VERTEX_POINT('',#2046);
#670=VERTEX_POINT('',#2050);
#671=VERTEX_POINT('',#2051);
#672=VERTEX_POINT('',#2056);
#673=VERTEX_POINT('',#2061);
#674=VERTEX_POINT('',#2063);
#675=VERTEX_POINT('',#2067);
#676=VERTEX_POINT('',#2071);
#677=VERTEX_POINT('',#2076);
#678=VERTEX_POINT('',#2082);
#679=VERTEX_POINT('',#2083);
#680=VERTEX_POINT('',#2086);
#681=VERTEX_POINT('',#2090);
#682=VERTEX_POINT('',#2092);
#683=VERTEX_POINT('',#2096);
#684=VERTEX_POINT('',#2098);
#685=VERTEX_POINT('',#2105);
#686=VERTEX_POINT('',#2107);
#687=VERTEX_POINT('',#2109);
#688=VERTEX_POINT('',#2111);
#689=VERTEX_POINT('',#2113);
#690=VERTEX_POINT('',#2116);
#691=VERTEX_POINT('',#2118);
#692=VERTEX_POINT('',#2120);
#693=VERTEX_POINT('',#2146);
#694=VERTEX_POINT('',#2147);
#695=VERTEX_POINT('',#2152);
#696=VERTEX_POINT('',#2156);
#697=VERTEX_POINT('',#2160);
#698=VERTEX_POINT('',#2164);
#699=VERTEX_POINT('',#2168);
#700=VERTEX_POINT('',#2172);
#701=VERTEX_POINT('',#2176);
#702=VERTEX_POINT('',#2180);
#703=VERTEX_POINT('',#2184);
#704=VERTEX_POINT('',#2190);
#705=VERTEX_POINT('',#2194);
#706=VERTEX_POINT('',#2198);
#707=VERTEX_POINT('',#2202);
#708=EDGE_CURVE('',#588,#588,#550,.T.);
#709=EDGE_CURVE('',#588,#589,#256,.T.);
#710=EDGE_CURVE('',#589,#589,#551,.T.);
#711=EDGE_CURVE('',#590,#591,#257,.T.);
#712=EDGE_CURVE('',#592,#590,#258,.T.);
#713=EDGE_CURVE('',#593,#592,#259,.T.);
#714=EDGE_CURVE('',#594,#593,#260,.T.);
#715=EDGE_CURVE('',#595,#594,#261,.T.);
#716=EDGE_CURVE('',#595,#596,#262,.T.);
#717=EDGE_CURVE('',#596,#591,#263,.T.);
#718=EDGE_CURVE('',#597,#597,#552,.T.);
#719=EDGE_CURVE('',#598,#598,#553,.T.);
#720=EDGE_CURVE('',#599,#599,#554,.T.);
#721=EDGE_CURVE('',#600,#600,#555,.T.);
#722=EDGE_CURVE('',#597,#601,#264,.T.);
#723=EDGE_CURVE('',#601,#601,#556,.T.);
#724=EDGE_CURVE('',#600,#602,#265,.T.);
#725=EDGE_CURVE('',#602,#602,#557,.T.);
#726=EDGE_CURVE('',#598,#603,#266,.T.);
#727=EDGE_CURVE('',#603,#603,#558,.T.);
#728=EDGE_CURVE('',#599,#604,#267,.T.);
#729=EDGE_CURVE('',#604,#604,#559,.T.);
#730=EDGE_CURVE('',#605,#606,#560,.T.);
#731=EDGE_CURVE('',#606,#607,#268,.T.);
#732=EDGE_CURVE('',#607,#608,#561,.T.);
#733=EDGE_CURVE('',#608,#605,#269,.T.);
#734=EDGE_CURVE('',#605,#609,#270,.T.);
#735=EDGE_CURVE('',#609,#610,#562,.T.);
#736=EDGE_CURVE('',#610,#606,#271,.T.);
#737=EDGE_CURVE('',#611,#610,#272,.T.);
#738=EDGE_CURVE('',#612,#611,#273,.T.);
#739=EDGE_CURVE('',#613,#612,#274,.T.);
#740=EDGE_CURVE('',#607,#613,#275,.T.);
#741=EDGE_CURVE('',#614,#612,#563,.T.);
#742=EDGE_CURVE('',#611,#615,#564,.T.);
#743=EDGE_CURVE('',#615,#614,#276,.T.);
#744=EDGE_CURVE('',#614,#616,#277,.T.);
#745=EDGE_CURVE('',#616,#613,#565,.T.);
#746=EDGE_CURVE('',#617,#608,#278,.T.);
#747=EDGE_CURVE('',#618,#617,#279,.T.);
#748=EDGE_CURVE('',#618,#605,#280,.T.);
#749=EDGE_CURVE('',#619,#618,#281,.T.);
#750=EDGE_CURVE('',#609,#619,#282,.T.);
#751=EDGE_CURVE('',#620,#615,#283,.T.);
#752=EDGE_CURVE('',#621,#620,#284,.T.);
#753=EDGE_CURVE('',#621,#614,#285,.T.);
#754=EDGE_CURVE('',#622,#621,#286,.T.);
#755=EDGE_CURVE('',#616,#622,#287,.T.);
#756=EDGE_CURVE('',#620,#623,#288,.T.);
#757=EDGE_CURVE('',#623,#624,#566,.T.);
#758=EDGE_CURVE('',#624,#625,#289,.T.);
#759=EDGE_CURVE('',#625,#626,#290,.T.);
#760=EDGE_CURVE('',#626,#627,#291,.T.);
#761=EDGE_CURVE('',#627,#628,#567,.T.);
#762=EDGE_CURVE('',#628,#629,#292,.T.);
#763=EDGE_CURVE('',#629,#630,#293,.T.);
#764=EDGE_CURVE('',#630,#631,#294,.T.);
#765=EDGE_CURVE('',#631,#632,#568,.T.);
#766=EDGE_CURVE('',#632,#633,#295,.T.);
#767=EDGE_CURVE('',#633,#634,#569,.T.);
#768=EDGE_CURVE('',#634,#635,#296,.T.);
#769=EDGE_CURVE('',#635,#636,#570,.T.);
#770=EDGE_CURVE('',#636,#637,#297,.T.);
#771=EDGE_CURVE('',#637,#638,#571,.T.);
#772=EDGE_CURVE('',#638,#639,#298,.T.);
#773=EDGE_CURVE('',#639,#619,#299,.T.);
#774=EDGE_CURVE('',#617,#640,#300,.T.);
#775=EDGE_CURVE('',#640,#641,#301,.T.);
#776=EDGE_CURVE('',#641,#642,#302,.T.);
#777=EDGE_CURVE('',#642,#643,#303,.T.);
#778=EDGE_CURVE('',#643,#644,#304,.T.);
#779=EDGE_CURVE('',#644,#645,#305,.T.);
#780=EDGE_CURVE('',#645,#646,#306,.T.);
#781=EDGE_CURVE('',#646,#647,#307,.T.);
#782=EDGE_CURVE('',#647,#648,#308,.T.);
#783=EDGE_CURVE('',#648,#649,#309,.T.);
#784=EDGE_CURVE('',#649,#650,#310,.T.);
#785=EDGE_CURVE('',#650,#651,#311,.T.);
#786=EDGE_CURVE('',#651,#622,#312,.T.);
#787=EDGE_CURVE('',#652,#639,#313,.T.);
#788=EDGE_CURVE('',#652,#653,#314,.T.);
#789=EDGE_CURVE('',#653,#623,#315,.T.);
#790=EDGE_CURVE('',#654,#654,#572,.T.);
#791=EDGE_CURVE('',#654,#655,#316,.T.);
#792=EDGE_CURVE('',#655,#655,#573,.T.);
#793=EDGE_CURVE('',#656,#656,#574,.T.);
#794=EDGE_CURVE('',#656,#657,#317,.T.);
#795=EDGE_CURVE('',#657,#657,#575,.T.);
#796=EDGE_CURVE('',#658,#658,#576,.T.);
#797=EDGE_CURVE('',#658,#659,#318,.T.);
#798=EDGE_CURVE('',#659,#659,#577,.T.);
#799=EDGE_CURVE('',#660,#660,#578,.T.);
#800=EDGE_CURVE('',#660,#661,#319,.T.);
#801=EDGE_CURVE('',#661,#661,#579,.T.);
#802=EDGE_CURVE('',#662,#662,#580,.T.);
#803=EDGE_CURVE('',#662,#663,#320,.T.);
#804=EDGE_CURVE('',#663,#663,#581,.T.);
#805=EDGE_CURVE('',#664,#665,#321,.T.);
#806=EDGE_CURVE('',#666,#665,#322,.T.);
#807=EDGE_CURVE('',#667,#666,#323,.T.);
#808=EDGE_CURVE('',#667,#664,#324,.T.);
#809=EDGE_CURVE('',#596,#668,#325,.T.);
#810=EDGE_CURVE('',#669,#668,#326,.T.);
#811=EDGE_CURVE('',#591,#669,#327,.T.);
#812=EDGE_CURVE('',#670,#671,#328,.T.);
#813=EDGE_CURVE('',#671,#647,#329,.T.);
#814=EDGE_CURVE('',#670,#646,#330,.T.);
#815=EDGE_CURVE('',#672,#595,#331,.T.);
#816=EDGE_CURVE('',#672,#667,#332,.T.);
#817=EDGE_CURVE('',#668,#666,#333,.T.);
#818=EDGE_CURVE('',#594,#673,#334,.T.);
#819=EDGE_CURVE('',#674,#673,#335,.T.);
#820=EDGE_CURVE('',#595,#674,#336,.T.);
#821=EDGE_CURVE('',#593,#675,#337,.T.);
#822=EDGE_CURVE('',#673,#675,#338,.T.);
#823=EDGE_CURVE('',#592,#676,#339,.T.);
#824=EDGE_CURVE('',#675,#676,#340,.T.);
#825=EDGE_CURVE('',#593,#675,#341,.T.);
#826=EDGE_CURVE('',#590,#677,#342,.T.);
#827=EDGE_CURVE('',#676,#677,#343,.T.);
#828=EDGE_CURVE('',#677,#669,#344,.T.);
#829=EDGE_CURVE('',#678,#679,#345,.T.);
#830=EDGE_CURVE('',#678,#593,#346,.T.);
#831=EDGE_CURVE('',#680,#675,#347,.T.);
#832=EDGE_CURVE('',#679,#680,#348,.T.);
#833=EDGE_CURVE('',#681,#664,#349,.T.);
#834=EDGE_CURVE('',#681,#682,#350,.T.);
#835=EDGE_CURVE('',#665,#682,#351,.T.);
#836=EDGE_CURVE('',#678,#683,#352,.T.);
#837=EDGE_CURVE('',#683,#684,#353,.T.);
#838=EDGE_CURVE('',#675,#684,#354,.T.);
#839=EDGE_CURVE('',#681,#672,#355,.T.);
#840=EDGE_CURVE('',#682,#674,#356,.T.);
#841=EDGE_CURVE('',#685,#684,#357,.T.);
#842=EDGE_CURVE('',#686,#685,#358,.T.);
#843=EDGE_CURVE('',#687,#686,#359,.T.);
#844=EDGE_CURVE('',#688,#687,#360,.T.);
#845=EDGE_CURVE('',#689,#688,#361,.T.);
#846=EDGE_CURVE('',#671,#689,#362,.T.);
#847=EDGE_CURVE('',#690,#670,#363,.T.);
#848=EDGE_CURVE('',#691,#690,#364,.T.);
#849=EDGE_CURVE('',#692,#691,#365,.T.);
#850=EDGE_CURVE('',#680,#692,#366,.T.);
#851=EDGE_CURVE('',#692,#643,#367,.T.);
#852=EDGE_CURVE('',#680,#642,#368,.T.);
#853=EDGE_CURVE('',#691,#644,#369,.T.);
#854=EDGE_CURVE('',#690,#645,#370,.T.);
#855=EDGE_CURVE('',#686,#651,#371,.T.);
#856=EDGE_CURVE('',#685,#640,#372,.T.);
#857=EDGE_CURVE('',#684,#641,#373,.T.);
#858=EDGE_CURVE('',#683,#679,#374,.T.);
#859=EDGE_CURVE('',#687,#650,#375,.T.);
#860=EDGE_CURVE('',#688,#649,#376,.T.);
#861=EDGE_CURVE('',#689,#648,#377,.T.);
#862=EDGE_CURVE('',#693,#694,#582,.T.);
#863=EDGE_CURVE('',#693,#634,#378,.T.);
#864=EDGE_CURVE('',#694,#633,#379,.T.);
#865=EDGE_CURVE('',#694,#695,#380,.T.);
#866=EDGE_CURVE('',#695,#632,#381,.T.);
#867=EDGE_CURVE('',#696,#695,#583,.T.);
#868=EDGE_CURVE('',#696,#631,#382,.T.);
#869=EDGE_CURVE('',#696,#697,#383,.T.);
#870=EDGE_CURVE('',#697,#630,#384,.T.);
#871=EDGE_CURVE('',#698,#697,#385,.T.);
#872=EDGE_CURVE('',#698,#629,#386,.T.);
#873=EDGE_CURVE('',#699,#698,#387,.T.);
#874=EDGE_CURVE('',#699,#628,#388,.T.);
#875=EDGE_CURVE('',#700,#699,#584,.T.);
#876=EDGE_CURVE('',#700,#627,#389,.T.);
#877=EDGE_CURVE('',#701,#700,#390,.T.);
#878=EDGE_CURVE('',#701,#626,#391,.T.);
#879=EDGE_CURVE('',#702,#701,#392,.T.);
#880=EDGE_CURVE('',#702,#625,#393,.T.);
#881=EDGE_CURVE('',#702,#703,#394,.T.);
#882=EDGE_CURVE('',#703,#624,#395,.T.);
#883=EDGE_CURVE('',#653,#703,#585,.T.);
#884=EDGE_CURVE('',#704,#652,#396,.T.);
#885=EDGE_CURVE('',#704,#638,#397,.T.);
#886=EDGE_CURVE('',#705,#704,#586,.T.);
#887=EDGE_CURVE('',#705,#637,#398,.T.);
#888=EDGE_CURVE('',#706,#705,#399,.T.);
#889=EDGE_CURVE('',#706,#636,#400,.T.);
#890=EDGE_CURVE('',#707,#706,#587,.T.);
#891=EDGE_CURVE('',#707,#635,#401,.T.);
#892=EDGE_CURVE('',#693,#707,#402,.T.);
#893=ORIENTED_EDGE('',*,*,#708,.T.);
#894=ORIENTED_EDGE('',*,*,#709,.T.);
#895=ORIENTED_EDGE('',*,*,#710,.F.);
#896=ORIENTED_EDGE('',*,*,#709,.F.);
#897=ORIENTED_EDGE('',*,*,#711,.F.);
#898=ORIENTED_EDGE('',*,*,#712,.F.);
#899=ORIENTED_EDGE('',*,*,#713,.F.);
#900=ORIENTED_EDGE('',*,*,#714,.F.);
#901=ORIENTED_EDGE('',*,*,#715,.F.);
#902=ORIENTED_EDGE('',*,*,#716,.T.);
#903=ORIENTED_EDGE('',*,*,#717,.T.);
#904=ORIENTED_EDGE('',*,*,#718,.F.);
#905=ORIENTED_EDGE('',*,*,#719,.F.);
#906=ORIENTED_EDGE('',*,*,#720,.F.);
#907=ORIENTED_EDGE('',*,*,#721,.F.);
#908=ORIENTED_EDGE('',*,*,#708,.F.);
#909=ORIENTED_EDGE('',*,*,#718,.T.);
#910=ORIENTED_EDGE('',*,*,#722,.T.);
#911=ORIENTED_EDGE('',*,*,#723,.F.);
#912=ORIENTED_EDGE('',*,*,#722,.F.);
#913=ORIENTED_EDGE('',*,*,#721,.T.);
#914=ORIENTED_EDGE('',*,*,#724,.T.);
#915=ORIENTED_EDGE('',*,*,#725,.F.);
#916=ORIENTED_EDGE('',*,*,#724,.F.);
#917=ORIENTED_EDGE('',*,*,#719,.T.);
#918=ORIENTED_EDGE('',*,*,#726,.T.);
#919=ORIENTED_EDGE('',*,*,#727,.F.);
#920=ORIENTED_EDGE('',*,*,#726,.F.);
#921=ORIENTED_EDGE('',*,*,#720,.T.);
#922=ORIENTED_EDGE('',*,*,#728,.T.);
#923=ORIENTED_EDGE('',*,*,#729,.F.);
#924=ORIENTED_EDGE('',*,*,#728,.F.);
#925=ORIENTED_EDGE('',*,*,#730,.T.);
#926=ORIENTED_EDGE('',*,*,#731,.T.);
#927=ORIENTED_EDGE('',*,*,#732,.T.);
#928=ORIENTED_EDGE('',*,*,#733,.T.);
#929=ORIENTED_EDGE('',*,*,#730,.F.);
#930=ORIENTED_EDGE('',*,*,#734,.T.);
#931=ORIENTED_EDGE('',*,*,#735,.T.);
#932=ORIENTED_EDGE('',*,*,#736,.T.);
#933=ORIENTED_EDGE('',*,*,#731,.F.);
#934=ORIENTED_EDGE('',*,*,#736,.F.);
#935=ORIENTED_EDGE('',*,*,#737,.F.);
#936=ORIENTED_EDGE('',*,*,#738,.F.);
#937=ORIENTED_EDGE('',*,*,#739,.F.);
#938=ORIENTED_EDGE('',*,*,#740,.F.);
#939=ORIENTED_EDGE('',*,*,#741,.T.);
#940=ORIENTED_EDGE('',*,*,#738,.T.);
#941=ORIENTED_EDGE('',*,*,#742,.T.);
#942=ORIENTED_EDGE('',*,*,#743,.T.);
#943=ORIENTED_EDGE('',*,*,#741,.F.);
#944=ORIENTED_EDGE('',*,*,#744,.T.);
#945=ORIENTED_EDGE('',*,*,#745,.T.);
#946=ORIENTED_EDGE('',*,*,#739,.T.);
#947=ORIENTED_EDGE('',*,*,#733,.F.);
#948=ORIENTED_EDGE('',*,*,#746,.F.);
#949=ORIENTED_EDGE('',*,*,#747,.F.);
#950=ORIENTED_EDGE('',*,*,#748,.T.);
#951=ORIENTED_EDGE('',*,*,#734,.F.);
#952=ORIENTED_EDGE('',*,*,#748,.F.);
#953=ORIENTED_EDGE('',*,*,#749,.F.);
#954=ORIENTED_EDGE('',*,*,#750,.F.);
#955=ORIENTED_EDGE('',*,*,#743,.F.);
#956=ORIENTED_EDGE('',*,*,#751,.F.);
#957=ORIENTED_EDGE('',*,*,#752,.F.);
#958=ORIENTED_EDGE('',*,*,#753,.T.);
#959=ORIENTED_EDGE('',*,*,#744,.F.);
#960=ORIENTED_EDGE('',*,*,#753,.F.);
#961=ORIENTED_EDGE('',*,*,#754,.F.);
#962=ORIENTED_EDGE('',*,*,#755,.F.);
#963=ORIENTED_EDGE('',*,*,#754,.T.);
#964=ORIENTED_EDGE('',*,*,#752,.T.);
#965=ORIENTED_EDGE('',*,*,#756,.T.);
#966=ORIENTED_EDGE('',*,*,#757,.T.);
#967=ORIENTED_EDGE('',*,*,#758,.T.);
#968=ORIENTED_EDGE('',*,*,#759,.T.);
#969=ORIENTED_EDGE('',*,*,#760,.T.);
#970=ORIENTED_EDGE('',*,*,#761,.T.);
#971=ORIENTED_EDGE('',*,*,#762,.T.);
#972=ORIENTED_EDGE('',*,*,#763,.T.);
#973=ORIENTED_EDGE('',*,*,#764,.T.);
#974=ORIENTED_EDGE('',*,*,#765,.T.);
#975=ORIENTED_EDGE('',*,*,#766,.T.);
#976=ORIENTED_EDGE('',*,*,#767,.T.);
#977=ORIENTED_EDGE('',*,*,#768,.T.);
#978=ORIENTED_EDGE('',*,*,#769,.T.);
#979=ORIENTED_EDGE('',*,*,#770,.T.);
#980=ORIENTED_EDGE('',*,*,#771,.T.);
#981=ORIENTED_EDGE('',*,*,#772,.T.);
#982=ORIENTED_EDGE('',*,*,#773,.T.);
#983=ORIENTED_EDGE('',*,*,#749,.T.);
#984=ORIENTED_EDGE('',*,*,#747,.T.);
#985=ORIENTED_EDGE('',*,*,#774,.T.);
#986=ORIENTED_EDGE('',*,*,#775,.T.);
#987=ORIENTED_EDGE('',*,*,#776,.T.);
#988=ORIENTED_EDGE('',*,*,#777,.T.);
#989=ORIENTED_EDGE('',*,*,#778,.T.);
#990=ORIENTED_EDGE('',*,*,#779,.T.);
#991=ORIENTED_EDGE('',*,*,#780,.T.);
#992=ORIENTED_EDGE('',*,*,#781,.T.);
#993=ORIENTED_EDGE('',*,*,#782,.T.);
#994=ORIENTED_EDGE('',*,*,#783,.T.);
#995=ORIENTED_EDGE('',*,*,#784,.T.);
#996=ORIENTED_EDGE('',*,*,#785,.T.);
#997=ORIENTED_EDGE('',*,*,#786,.T.);
#998=ORIENTED_EDGE('',*,*,#751,.T.);
#999=ORIENTED_EDGE('',*,*,#742,.F.);
#1000=ORIENTED_EDGE('',*,*,#737,.T.);
#1001=ORIENTED_EDGE('',*,*,#735,.F.);
#1002=ORIENTED_EDGE('',*,*,#750,.T.);
#1003=ORIENTED_EDGE('',*,*,#773,.F.);
#1004=ORIENTED_EDGE('',*,*,#787,.F.);
#1005=ORIENTED_EDGE('',*,*,#788,.T.);
#1006=ORIENTED_EDGE('',*,*,#789,.T.);
#1007=ORIENTED_EDGE('',*,*,#756,.F.);
#1008=ORIENTED_EDGE('',*,*,#790,.F.);
#1009=ORIENTED_EDGE('',*,*,#791,.T.);
#1010=ORIENTED_EDGE('',*,*,#792,.F.);
#1011=ORIENTED_EDGE('',*,*,#791,.F.);
#1012=ORIENTED_EDGE('',*,*,#729,.T.);
#1013=ORIENTED_EDGE('',*,*,#790,.T.);
#1014=ORIENTED_EDGE('',*,*,#792,.T.);
#1015=ORIENTED_EDGE('',*,*,#793,.F.);
#1016=ORIENTED_EDGE('',*,*,#794,.T.);
#1017=ORIENTED_EDGE('',*,*,#795,.F.);
#1018=ORIENTED_EDGE('',*,*,#794,.F.);
#1019=ORIENTED_EDGE('',*,*,#727,.T.);
#1020=ORIENTED_EDGE('',*,*,#793,.T.);
#1021=ORIENTED_EDGE('',*,*,#795,.T.);
#1022=ORIENTED_EDGE('',*,*,#796,.F.);
#1023=ORIENTED_EDGE('',*,*,#797,.T.);
#1024=ORIENTED_EDGE('',*,*,#798,.F.);
#1025=ORIENTED_EDGE('',*,*,#797,.F.);
#1026=ORIENTED_EDGE('',*,*,#710,.T.);
#1027=ORIENTED_EDGE('',*,*,#796,.T.);
#1028=ORIENTED_EDGE('',*,*,#798,.T.);
#1029=ORIENTED_EDGE('',*,*,#799,.F.);
#1030=ORIENTED_EDGE('',*,*,#800,.T.);
#1031=ORIENTED_EDGE('',*,*,#801,.F.);
#1032=ORIENTED_EDGE('',*,*,#800,.F.);
#1033=ORIENTED_EDGE('',*,*,#725,.T.);
#1034=ORIENTED_EDGE('',*,*,#799,.T.);
#1035=ORIENTED_EDGE('',*,*,#801,.T.);
#1036=ORIENTED_EDGE('',*,*,#802,.F.);
#1037=ORIENTED_EDGE('',*,*,#803,.T.);
#1038=ORIENTED_EDGE('',*,*,#804,.F.);
#1039=ORIENTED_EDGE('',*,*,#803,.F.);
#1040=ORIENTED_EDGE('',*,*,#723,.T.);
#1041=ORIENTED_EDGE('',*,*,#802,.T.);
#1042=ORIENTED_EDGE('',*,*,#805,.T.);
#1043=ORIENTED_EDGE('',*,*,#806,.F.);
#1044=ORIENTED_EDGE('',*,*,#807,.F.);
#1045=ORIENTED_EDGE('',*,*,#808,.T.);
#1046=ORIENTED_EDGE('',*,*,#717,.F.);
#1047=ORIENTED_EDGE('',*,*,#809,.T.);
#1048=ORIENTED_EDGE('',*,*,#810,.F.);
#1049=ORIENTED_EDGE('',*,*,#811,.F.);
#1050=ORIENTED_EDGE('',*,*,#812,.T.);
#1051=ORIENTED_EDGE('',*,*,#813,.T.);
#1052=ORIENTED_EDGE('',*,*,#781,.F.);
#1053=ORIENTED_EDGE('',*,*,#814,.F.);
#1054=ORIENTED_EDGE('',*,*,#815,.F.);
#1055=ORIENTED_EDGE('',*,*,#816,.T.);
#1056=ORIENTED_EDGE('',*,*,#807,.T.);
#1057=ORIENTED_EDGE('',*,*,#817,.F.);
#1058=ORIENTED_EDGE('',*,*,#809,.F.);
#1059=ORIENTED_EDGE('',*,*,#716,.F.);
#1060=ORIENTED_EDGE('',*,*,#715,.T.);
#1061=ORIENTED_EDGE('',*,*,#818,.T.);
#1062=ORIENTED_EDGE('',*,*,#819,.F.);
#1063=ORIENTED_EDGE('',*,*,#820,.F.);
#1064=ORIENTED_EDGE('',*,*,#714,.T.);
#1065=ORIENTED_EDGE('',*,*,#821,.T.);
#1066=ORIENTED_EDGE('',*,*,#822,.F.);
#1067=ORIENTED_EDGE('',*,*,#818,.F.);
#1068=ORIENTED_EDGE('',*,*,#713,.T.);
#1069=ORIENTED_EDGE('',*,*,#823,.T.);
#1070=ORIENTED_EDGE('',*,*,#824,.F.);
#1071=ORIENTED_EDGE('',*,*,#825,.F.);
#1072=ORIENTED_EDGE('',*,*,#712,.T.);
#1073=ORIENTED_EDGE('',*,*,#826,.T.);
#1074=ORIENTED_EDGE('',*,*,#827,.F.);
#1075=ORIENTED_EDGE('',*,*,#823,.F.);
#1076=ORIENTED_EDGE('',*,*,#711,.T.);
#1077=ORIENTED_EDGE('',*,*,#811,.T.);
#1078=ORIENTED_EDGE('',*,*,#828,.F.);
#1079=ORIENTED_EDGE('',*,*,#826,.F.);
#1080=ORIENTED_EDGE('',*,*,#829,.F.);
#1081=ORIENTED_EDGE('',*,*,#830,.T.);
#1082=ORIENTED_EDGE('',*,*,#825,.T.);
#1083=ORIENTED_EDGE('',*,*,#831,.F.);
#1084=ORIENTED_EDGE('',*,*,#832,.F.);
#1085=ORIENTED_EDGE('',*,*,#833,.F.);
#1086=ORIENTED_EDGE('',*,*,#834,.T.);
#1087=ORIENTED_EDGE('',*,*,#835,.F.);
#1088=ORIENTED_EDGE('',*,*,#805,.F.);
#1089=ORIENTED_EDGE('',*,*,#836,.T.);
#1090=ORIENTED_EDGE('',*,*,#837,.T.);
#1091=ORIENTED_EDGE('',*,*,#838,.F.);
#1092=ORIENTED_EDGE('',*,*,#821,.F.);
#1093=ORIENTED_EDGE('',*,*,#830,.F.);
#1094=ORIENTED_EDGE('',*,*,#839,.T.);
#1095=ORIENTED_EDGE('',*,*,#815,.T.);
#1096=ORIENTED_EDGE('',*,*,#820,.T.);
#1097=ORIENTED_EDGE('',*,*,#840,.F.);
#1098=ORIENTED_EDGE('',*,*,#834,.F.);
#1099=ORIENTED_EDGE('',*,*,#840,.T.);
#1100=ORIENTED_EDGE('',*,*,#819,.T.);
#1101=ORIENTED_EDGE('',*,*,#822,.T.);
#1102=ORIENTED_EDGE('',*,*,#838,.T.);
#1103=ORIENTED_EDGE('',*,*,#841,.F.);
#1104=ORIENTED_EDGE('',*,*,#842,.F.);
#1105=ORIENTED_EDGE('',*,*,#843,.F.);
#1106=ORIENTED_EDGE('',*,*,#844,.F.);
#1107=ORIENTED_EDGE('',*,*,#845,.F.);
#1108=ORIENTED_EDGE('',*,*,#846,.F.);
#1109=ORIENTED_EDGE('',*,*,#812,.F.);
#1110=ORIENTED_EDGE('',*,*,#847,.F.);
#1111=ORIENTED_EDGE('',*,*,#848,.F.);
#1112=ORIENTED_EDGE('',*,*,#849,.F.);
#1113=ORIENTED_EDGE('',*,*,#850,.F.);
#1114=ORIENTED_EDGE('',*,*,#831,.T.);
#1115=ORIENTED_EDGE('',*,*,#824,.T.);
#1116=ORIENTED_EDGE('',*,*,#827,.T.);
#1117=ORIENTED_EDGE('',*,*,#828,.T.);
#1118=ORIENTED_EDGE('',*,*,#810,.T.);
#1119=ORIENTED_EDGE('',*,*,#817,.T.);
#1120=ORIENTED_EDGE('',*,*,#806,.T.);
#1121=ORIENTED_EDGE('',*,*,#835,.T.);
#1122=ORIENTED_EDGE('',*,*,#850,.T.);
#1123=ORIENTED_EDGE('',*,*,#851,.T.);
#1124=ORIENTED_EDGE('',*,*,#777,.F.);
#1125=ORIENTED_EDGE('',*,*,#852,.F.);
#1126=ORIENTED_EDGE('',*,*,#849,.T.);
#1127=ORIENTED_EDGE('',*,*,#853,.T.);
#1128=ORIENTED_EDGE('',*,*,#778,.F.);
#1129=ORIENTED_EDGE('',*,*,#851,.F.);
#1130=ORIENTED_EDGE('',*,*,#848,.T.);
#1131=ORIENTED_EDGE('',*,*,#854,.T.);
#1132=ORIENTED_EDGE('',*,*,#779,.F.);
#1133=ORIENTED_EDGE('',*,*,#853,.F.);
#1134=ORIENTED_EDGE('',*,*,#755,.T.);
#1135=ORIENTED_EDGE('',*,*,#786,.F.);
#1136=ORIENTED_EDGE('',*,*,#855,.F.);
#1137=ORIENTED_EDGE('',*,*,#842,.T.);
#1138=ORIENTED_EDGE('',*,*,#856,.T.);
#1139=ORIENTED_EDGE('',*,*,#774,.F.);
#1140=ORIENTED_EDGE('',*,*,#746,.T.);
#1141=ORIENTED_EDGE('',*,*,#732,.F.);
#1142=ORIENTED_EDGE('',*,*,#740,.T.);
#1143=ORIENTED_EDGE('',*,*,#745,.F.);
#1144=ORIENTED_EDGE('',*,*,#841,.T.);
#1145=ORIENTED_EDGE('',*,*,#857,.T.);
#1146=ORIENTED_EDGE('',*,*,#775,.F.);
#1147=ORIENTED_EDGE('',*,*,#856,.F.);
#1148=ORIENTED_EDGE('',*,*,#858,.T.);
#1149=ORIENTED_EDGE('',*,*,#832,.T.);
#1150=ORIENTED_EDGE('',*,*,#852,.T.);
#1151=ORIENTED_EDGE('',*,*,#776,.F.);
#1152=ORIENTED_EDGE('',*,*,#857,.F.);
#1153=ORIENTED_EDGE('',*,*,#837,.F.);
#1154=ORIENTED_EDGE('',*,*,#843,.T.);
#1155=ORIENTED_EDGE('',*,*,#855,.T.);
#1156=ORIENTED_EDGE('',*,*,#785,.F.);
#1157=ORIENTED_EDGE('',*,*,#859,.F.);
#1158=ORIENTED_EDGE('',*,*,#844,.T.);
#1159=ORIENTED_EDGE('',*,*,#859,.T.);
#1160=ORIENTED_EDGE('',*,*,#784,.F.);
#1161=ORIENTED_EDGE('',*,*,#860,.F.);
#1162=ORIENTED_EDGE('',*,*,#845,.T.);
#1163=ORIENTED_EDGE('',*,*,#860,.T.);
#1164=ORIENTED_EDGE('',*,*,#783,.F.);
#1165=ORIENTED_EDGE('',*,*,#861,.F.);
#1166=ORIENTED_EDGE('',*,*,#846,.T.);
#1167=ORIENTED_EDGE('',*,*,#861,.T.);
#1168=ORIENTED_EDGE('',*,*,#782,.F.);
#1169=ORIENTED_EDGE('',*,*,#813,.F.);
#1170=ORIENTED_EDGE('',*,*,#847,.T.);
#1171=ORIENTED_EDGE('',*,*,#814,.T.);
#1172=ORIENTED_EDGE('',*,*,#780,.F.);
#1173=ORIENTED_EDGE('',*,*,#854,.F.);
#1174=ORIENTED_EDGE('',*,*,#862,.F.);
#1175=ORIENTED_EDGE('',*,*,#863,.T.);
#1176=ORIENTED_EDGE('',*,*,#767,.F.);
#1177=ORIENTED_EDGE('',*,*,#864,.F.);
#1178=ORIENTED_EDGE('',*,*,#865,.F.);
#1179=ORIENTED_EDGE('',*,*,#864,.T.);
#1180=ORIENTED_EDGE('',*,*,#766,.F.);
#1181=ORIENTED_EDGE('',*,*,#866,.F.);
#1182=ORIENTED_EDGE('',*,*,#867,.T.);
#1183=ORIENTED_EDGE('',*,*,#866,.T.);
#1184=ORIENTED_EDGE('',*,*,#765,.F.);
#1185=ORIENTED_EDGE('',*,*,#868,.F.);
#1186=ORIENTED_EDGE('',*,*,#869,.F.);
#1187=ORIENTED_EDGE('',*,*,#868,.T.);
#1188=ORIENTED_EDGE('',*,*,#764,.F.);
#1189=ORIENTED_EDGE('',*,*,#870,.F.);
#1190=ORIENTED_EDGE('',*,*,#871,.T.);
#1191=ORIENTED_EDGE('',*,*,#870,.T.);
#1192=ORIENTED_EDGE('',*,*,#763,.F.);
#1193=ORIENTED_EDGE('',*,*,#872,.F.);
#1194=ORIENTED_EDGE('',*,*,#873,.T.);
#1195=ORIENTED_EDGE('',*,*,#872,.T.);
#1196=ORIENTED_EDGE('',*,*,#762,.F.);
#1197=ORIENTED_EDGE('',*,*,#874,.F.);
#1198=ORIENTED_EDGE('',*,*,#875,.T.);
#1199=ORIENTED_EDGE('',*,*,#874,.T.);
#1200=ORIENTED_EDGE('',*,*,#761,.F.);
#1201=ORIENTED_EDGE('',*,*,#876,.F.);
#1202=ORIENTED_EDGE('',*,*,#877,.T.);
#1203=ORIENTED_EDGE('',*,*,#876,.T.);
#1204=ORIENTED_EDGE('',*,*,#760,.F.);
#1205=ORIENTED_EDGE('',*,*,#878,.F.);
#1206=ORIENTED_EDGE('',*,*,#879,.T.);
#1207=ORIENTED_EDGE('',*,*,#878,.T.);
#1208=ORIENTED_EDGE('',*,*,#759,.F.);
#1209=ORIENTED_EDGE('',*,*,#880,.F.);
#1210=ORIENTED_EDGE('',*,*,#881,.F.);
#1211=ORIENTED_EDGE('',*,*,#880,.T.);
#1212=ORIENTED_EDGE('',*,*,#758,.F.);
#1213=ORIENTED_EDGE('',*,*,#882,.F.);
#1214=ORIENTED_EDGE('',*,*,#883,.T.);
#1215=ORIENTED_EDGE('',*,*,#882,.T.);
#1216=ORIENTED_EDGE('',*,*,#757,.F.);
#1217=ORIENTED_EDGE('',*,*,#789,.F.);
#1218=ORIENTED_EDGE('',*,*,#884,.T.);
#1219=ORIENTED_EDGE('',*,*,#787,.T.);
#1220=ORIENTED_EDGE('',*,*,#772,.F.);
#1221=ORIENTED_EDGE('',*,*,#885,.F.);
#1222=ORIENTED_EDGE('',*,*,#886,.T.);
#1223=ORIENTED_EDGE('',*,*,#885,.T.);
#1224=ORIENTED_EDGE('',*,*,#771,.F.);
#1225=ORIENTED_EDGE('',*,*,#887,.F.);
#1226=ORIENTED_EDGE('',*,*,#888,.T.);
#1227=ORIENTED_EDGE('',*,*,#887,.T.);
#1228=ORIENTED_EDGE('',*,*,#770,.F.);
#1229=ORIENTED_EDGE('',*,*,#889,.F.);
#1230=ORIENTED_EDGE('',*,*,#890,.T.);
#1231=ORIENTED_EDGE('',*,*,#889,.T.);
#1232=ORIENTED_EDGE('',*,*,#769,.F.);
#1233=ORIENTED_EDGE('',*,*,#891,.F.);
#1234=ORIENTED_EDGE('',*,*,#892,.T.);
#1235=ORIENTED_EDGE('',*,*,#891,.T.);
#1236=ORIENTED_EDGE('',*,*,#768,.F.);
#1237=ORIENTED_EDGE('',*,*,#863,.F.);
#1238=ORIENTED_EDGE('',*,*,#804,.T.);
#1239=ORIENTED_EDGE('',*,*,#892,.F.);
#1240=ORIENTED_EDGE('',*,*,#862,.T.);
#1241=ORIENTED_EDGE('',*,*,#865,.T.);
#1242=ORIENTED_EDGE('',*,*,#867,.F.);
#1243=ORIENTED_EDGE('',*,*,#869,.T.);
#1244=ORIENTED_EDGE('',*,*,#871,.F.);
#1245=ORIENTED_EDGE('',*,*,#873,.F.);
#1246=ORIENTED_EDGE('',*,*,#875,.F.);
#1247=ORIENTED_EDGE('',*,*,#877,.F.);
#1248=ORIENTED_EDGE('',*,*,#879,.F.);
#1249=ORIENTED_EDGE('',*,*,#881,.T.);
#1250=ORIENTED_EDGE('',*,*,#883,.F.);
#1251=ORIENTED_EDGE('',*,*,#788,.F.);
#1252=ORIENTED_EDGE('',*,*,#884,.F.);
#1253=ORIENTED_EDGE('',*,*,#886,.F.);
#1254=ORIENTED_EDGE('',*,*,#888,.F.);
#1255=ORIENTED_EDGE('',*,*,#890,.F.);
#1256=ORIENTED_EDGE('',*,*,#829,.T.);
#1257=ORIENTED_EDGE('',*,*,#858,.F.);
#1258=ORIENTED_EDGE('',*,*,#836,.F.);
#1259=ORIENTED_EDGE('',*,*,#839,.F.);
#1260=ORIENTED_EDGE('',*,*,#833,.T.);
#1261=ORIENTED_EDGE('',*,*,#808,.F.);
#1262=ORIENTED_EDGE('',*,*,#816,.F.);
#1263=CONICAL_SURFACE('',#1344,6.50000000000002,0.78539816339745);
#1264=CONICAL_SURFACE('',#1352,6.49999999999999,0.785398163397448);
#1265=CONICAL_SURFACE('',#1354,6.5,0.785398163397449);
#1266=CONICAL_SURFACE('',#1356,6.5,0.785398163397449);
#1267=CONICAL_SURFACE('',#1358,6.50000000000002,0.78539816339745);
#1268=ADVANCED_FACE('',(#96),#1263,.T.);
#1269=ADVANCED_FACE('',(#97,#30,#31,#32,#33,#34),#42,.T.);
#1270=ADVANCED_FACE('',(#98),#1264,.T.);
#1271=ADVANCED_FACE('',(#99),#1265,.T.);
#1272=ADVANCED_FACE('',(#100),#1266,.T.);
#1273=ADVANCED_FACE('',(#101),#1267,.T.);
#1274=ADVANCED_FACE('',(#102),#15,.F.);
#1275=ADVANCED_FACE('',(#103),#16,.F.);
#1276=ADVANCED_FACE('',(#104),#43,.F.);
#1277=ADVANCED_FACE('',(#105),#17,.F.);
#1278=ADVANCED_FACE('',(#106),#18,.F.);
#1279=ADVANCED_FACE('',(#107),#44,.F.);
#1280=ADVANCED_FACE('',(#108),#45,.F.);
#1281=ADVANCED_FACE('',(#109),#46,.F.);
#1282=ADVANCED_FACE('',(#110),#47,.F.);
#1283=ADVANCED_FACE('',(#111),#48,.T.);
#1284=ADVANCED_FACE('',(#112),#49,.T.);
#1285=ADVANCED_FACE('',(#113),#19,.F.);
#1286=ADVANCED_FACE('',(#114,#35),#50,.T.);
#1287=ADVANCED_FACE('',(#115),#51,.T.);
#1288=ADVANCED_FACE('',(#116),#20,.F.);
#1289=ADVANCED_FACE('',(#117,#36),#52,.T.);
#1290=ADVANCED_FACE('',(#118),#53,.T.);
#1291=ADVANCED_FACE('',(#119),#21,.F.);
#1292=ADVANCED_FACE('',(#120,#37),#54,.T.);
#1293=ADVANCED_FACE('',(#121),#55,.T.);
#1294=ADVANCED_FACE('',(#122),#22,.F.);
#1295=ADVANCED_FACE('',(#123,#38),#56,.T.);
#1296=ADVANCED_FACE('',(#124),#57,.T.);
#1297=ADVANCED_FACE('',(#125),#23,.F.);
#1298=ADVANCED_FACE('',(#126,#39),#58,.T.);
#1299=ADVANCED_FACE('',(#127),#59,.T.);
#1300=ADVANCED_FACE('',(#128),#60,.T.);
#1301=ADVANCED_FACE('',(#129),#61,.T.);
#1302=ADVANCED_FACE('',(#130),#62,.T.);
#1303=ADVANCED_FACE('',(#131),#63,.T.);
#1304=ADVANCED_FACE('',(#132),#64,.T.);
#1305=ADVANCED_FACE('',(#133),#65,.T.);
#1306=ADVANCED_FACE('',(#134),#66,.T.);
#1307=ADVANCED_FACE('',(#135),#67,.T.);
#1308=ADVANCED_FACE('',(#136),#68,.T.);
#1309=ADVANCED_FACE('',(#137),#69,.T.);
#1310=ADVANCED_FACE('',(#138),#70,.T.);
#1311=ADVANCED_FACE('',(#139),#71,.T.);
#1312=ADVANCED_FACE('',(#140),#72,.T.);
#1313=ADVANCED_FACE('',(#141),#73,.T.);
#1314=ADVANCED_FACE('',(#142),#74,.T.);
#1315=ADVANCED_FACE('',(#143),#75,.T.);
#1316=ADVANCED_FACE('',(#144),#76,.T.);
#1317=ADVANCED_FACE('',(#145),#77,.T.);
#1318=ADVANCED_FACE('',(#146),#78,.T.);
#1319=ADVANCED_FACE('',(#147),#79,.T.);
#1320=ADVANCED_FACE('',(#148),#80,.T.);
#1321=ADVANCED_FACE('',(#149),#81,.T.);
#1322=ADVANCED_FACE('',(#150),#82,.T.);
#1323=ADVANCED_FACE('',(#151),#83,.T.);
#1324=ADVANCED_FACE('',(#152),#24,.F.);
#1325=ADVANCED_FACE('',(#153),#84,.T.);
#1326=ADVANCED_FACE('',(#154),#25,.T.);
#1327=ADVANCED_FACE('',(#155),#85,.T.);
#1328=ADVANCED_FACE('',(#156),#86,.T.);
#1329=ADVANCED_FACE('',(#157),#87,.T.);
#1330=ADVANCED_FACE('',(#158),#26,.T.);
#1331=ADVANCED_FACE('',(#159),#88,.T.);
#1332=ADVANCED_FACE('',(#160),#89,.T.);
#1333=ADVANCED_FACE('',(#161),#90,.T.);
#1334=ADVANCED_FACE('',(#162),#27,.T.);
#1335=ADVANCED_FACE('',(#163),#91,.T.);
#1336=ADVANCED_FACE('',(#164),#28,.T.);
#1337=ADVANCED_FACE('',(#165),#92,.T.);
#1338=ADVANCED_FACE('',(#166),#29,.T.);
#1339=ADVANCED_FACE('',(#167),#93,.T.);
#1340=ADVANCED_FACE('',(#168),#94,.T.);
#1341=ADVANCED_FACE('',(#169,#40,#41),#95,.F.);
#1342=CLOSED_SHELL('',(#1268,#1269,#1270,#1271,#1272,#1273,#1274,#1275,
#1276,#1277,#1278,#1279,#1280,#1281,#1282,#1283,#1284,#1285,#1286,#1287,
#1288,#1289,#1290,#1291,#1292,#1293,#1294,#1295,#1296,#1297,#1298,#1299,
#1300,#1301,#1302,#1303,#1304,#1305,#1306,#1307,#1308,#1309,#1310,#1311,
#1312,#1313,#1314,#1315,#1316,#1317,#1318,#1319,#1320,#1321,#1322,#1323,
#1324,#1325,#1326,#1327,#1328,#1329,#1330,#1331,#1332,#1333,#1334,#1335,
#1336,#1337,#1338,#1339,#1340,#1341));
#1343=AXIS2_PLACEMENT_3D('',#1829,#1456,#1457);
#1344=AXIS2_PLACEMENT_3D('',#1830,#1458,#1459);
#1345=AXIS2_PLACEMENT_3D('',#1832,#1460,#1461);
#1346=AXIS2_PLACEMENT_3D('',#1835,#1463,#1464);
#1347=AXIS2_PLACEMENT_3D('',#1836,#1465,#1466);
#1348=AXIS2_PLACEMENT_3D('',#1852,#1474,#1475);
#1349=AXIS2_PLACEMENT_3D('',#1854,#1476,#1477);
#1350=AXIS2_PLACEMENT_3D('',#1856,#1478,#1479);
#1351=AXIS2_PLACEMENT_3D('',#1858,#1480,#1481);
#1352=AXIS2_PLACEMENT_3D('',#1859,#1482,#1483);
#1353=AXIS2_PLACEMENT_3D('',#1862,#1485,#1486);
#1354=AXIS2_PLACEMENT_3D('',#1863,#1487,#1488);
#1355=AXIS2_PLACEMENT_3D('',#1866,#1490,#1491);
#1356=AXIS2_PLACEMENT_3D('',#1867,#1492,#1493);
#1357=AXIS2_PLACEMENT_3D('',#1870,#1495,#1496);
#1358=AXIS2_PLACEMENT_3D('',#1871,#1497,#1498);
#1359=AXIS2_PLACEMENT_3D('',#1874,#1500,#1501);
#1360=AXIS2_PLACEMENT_3D('',#1875,#1502,#1503);
#1361=AXIS2_PLACEMENT_3D('',#1878,#1504,#1505);
#1362=AXIS2_PLACEMENT_3D('',#1882,#1507,#1508);
#1363=AXIS2_PLACEMENT_3D('',#1884,#1510,#1511);
#1364=AXIS2_PLACEMENT_3D('',#1888,#1513,#1514);
#1365=AXIS2_PLACEMENT_3D('',#1890,#1516,#1517);
#1366=AXIS2_PLACEMENT_3D('',#1898,#1522,#1523);
#1367=AXIS2_PLACEMENT_3D('',#1900,#1524,#1525);
#1368=AXIS2_PLACEMENT_3D('',#1902,#1526,#1527);
#1369=AXIS2_PLACEMENT_3D('',#1904,#1529,#1530);
#1370=AXIS2_PLACEMENT_3D('',#1907,#1532,#1533);
#1371=AXIS2_PLACEMENT_3D('',#1908,#1534,#1535);
#1372=AXIS2_PLACEMENT_3D('',#1914,#1539,#1540);
#1373=AXIS2_PLACEMENT_3D('',#1918,#1543,#1544);
#1374=AXIS2_PLACEMENT_3D('',#1924,#1548,#1549);
#1375=AXIS2_PLACEMENT_3D('',#1928,#1552,#1553);
#1376=AXIS2_PLACEMENT_3D('',#1932,#1555,#1556);
#1377=AXIS2_PLACEMENT_3D('',#1940,#1560,#1561);
#1378=AXIS2_PLACEMENT_3D('',#1948,#1565,#1566);
#1379=AXIS2_PLACEMENT_3D('',#1952,#1568,#1569);
#1380=AXIS2_PLACEMENT_3D('',#1956,#1571,#1572);
#1381=AXIS2_PLACEMENT_3D('',#1960,#1574,#1575);
#1382=AXIS2_PLACEMENT_3D('',#1989,#1591,#1592);
#1383=AXIS2_PLACEMENT_3D('',#1995,#1596,#1597);
#1384=AXIS2_PLACEMENT_3D('',#1997,#1598,#1599);
#1385=AXIS2_PLACEMENT_3D('',#2000,#1601,#1602);
#1386=AXIS2_PLACEMENT_3D('',#2001,#1603,#1604);
#1387=AXIS2_PLACEMENT_3D('',#2002,#1605,#1606);
#1388=AXIS2_PLACEMENT_3D('',#2003,#1607,#1608);
#1389=AXIS2_PLACEMENT_3D('',#2005,#1609,#1610);
#1390=AXIS2_PLACEMENT_3D('',#2008,#1612,#1613);
#1391=AXIS2_PLACEMENT_3D('',#2009,#1614,#1615);
#1392=AXIS2_PLACEMENT_3D('',#2010,#1616,#1617);
#1393=AXIS2_PLACEMENT_3D('',#2011,#1618,#1619);
#1394=AXIS2_PLACEMENT_3D('',#2013,#1620,#1621);
#1395=AXIS2_PLACEMENT_3D('',#2016,#1623,#1624);
#1396=AXIS2_PLACEMENT_3D('',#2017,#1625,#1626);
#1397=AXIS2_PLACEMENT_3D('',#2018,#1627,#1628);
#1398=AXIS2_PLACEMENT_3D('',#2019,#1629,#1630);
#1399=AXIS2_PLACEMENT_3D('',#2021,#1631,#1632);
#1400=AXIS2_PLACEMENT_3D('',#2024,#1634,#1635);
#1401=AXIS2_PLACEMENT_3D('',#2025,#1636,#1637);
#1402=AXIS2_PLACEMENT_3D('',#2026,#1638,#1639);
#1403=AXIS2_PLACEMENT_3D('',#2027,#1640,#1641);
#1404=AXIS2_PLACEMENT_3D('',#2029,#1642,#1643);
#1405=AXIS2_PLACEMENT_3D('',#2032,#1645,#1646);
#1406=AXIS2_PLACEMENT_3D('',#2033,#1647,#1648);
#1407=AXIS2_PLACEMENT_3D('',#2034,#1649,#1650);
#1408=AXIS2_PLACEMENT_3D('',#2043,#1655,#1656);
#1409=AXIS2_PLACEMENT_3D('',#2049,#1660,#1661);
#1410=AXIS2_PLACEMENT_3D('',#2055,#1665,#1666);
#1411=AXIS2_PLACEMENT_3D('',#2060,#1670,#1671);
#1412=AXIS2_PLACEMENT_3D('',#2066,#1675,#1676);
#1413=AXIS2_PLACEMENT_3D('',#2070,#1679,#1680);
#1414=AXIS2_PLACEMENT_3D('',#2075,#1684,#1685);
#1415=AXIS2_PLACEMENT_3D('',#2079,#1688,#1689);
#1416=AXIS2_PLACEMENT_3D('',#2081,#1691,#1692);
#1417=AXIS2_PLACEMENT_3D('',#2089,#1697,#1698);
#1418=AXIS2_PLACEMENT_3D('',#2095,#1702,#1703);
#1419=AXIS2_PLACEMENT_3D('',#2101,#1707,#1708);
#1420=AXIS2_PLACEMENT_3D('',#2104,#1711,#1712);
#1421=AXIS2_PLACEMENT_3D('',#2123,#1723,#1724);
#1422=AXIS2_PLACEMENT_3D('',#2126,#1727,#1728);
#1423=AXIS2_PLACEMENT_3D('',#2128,#1730,#1731);
#1424=AXIS2_PLACEMENT_3D('',#2130,#1733,#1734);
#1425=AXIS2_PLACEMENT_3D('',#2133,#1737,#1738);
#1426=AXIS2_PLACEMENT_3D('',#2135,#1740,#1741);
#1427=AXIS2_PLACEMENT_3D('',#2137,#1743,#1744);
#1428=AXIS2_PLACEMENT_3D('',#2139,#1746,#1747);
#1429=AXIS2_PLACEMENT_3D('',#2141,#1749,#1750);
#1430=AXIS2_PLACEMENT_3D('',#2143,#1752,#1753);
#1431=AXIS2_PLACEMENT_3D('',#2144,#1754,#1755);
#1432=AXIS2_PLACEMENT_3D('',#2145,#1756,#1757);
#1433=AXIS2_PLACEMENT_3D('',#2148,#1758,#1759);
#1434=AXIS2_PLACEMENT_3D('',#2151,#1762,#1763);
#1435=AXIS2_PLACEMENT_3D('',#2155,#1766,#1767);
#1436=AXIS2_PLACEMENT_3D('',#2157,#1768,#1769);
#1437=AXIS2_PLACEMENT_3D('',#2159,#1771,#1772);
#1438=AXIS2_PLACEMENT_3D('',#2163,#1775,#1776);
#1439=AXIS2_PLACEMENT_3D('',#2167,#1779,#1780);
#1440=AXIS2_PLACEMENT_3D('',#2171,#1783,#1784);
#1441=AXIS2_PLACEMENT_3D('',#2173,#1785,#1786);
#1442=AXIS2_PLACEMENT_3D('',#2175,#1788,#1789);
#1443=AXIS2_PLACEMENT_3D('',#2179,#1792,#1793);
#1444=AXIS2_PLACEMENT_3D('',#2183,#1796,#1797);
#1445=AXIS2_PLACEMENT_3D('',#2187,#1800,#1801);
#1446=AXIS2_PLACEMENT_3D('',#2188,#1802,#1803);
#1447=AXIS2_PLACEMENT_3D('',#2189,#1804,#1805);
#1448=AXIS2_PLACEMENT_3D('',#2193,#1808,#1809);
#1449=AXIS2_PLACEMENT_3D('',#2195,#1810,#1811);
#1450=AXIS2_PLACEMENT_3D('',#2197,#1813,#1814);
#1451=AXIS2_PLACEMENT_3D('',#2201,#1817,#1818);
#1452=AXIS2_PLACEMENT_3D('',#2203,#1819,#1820);
#1453=AXIS2_PLACEMENT_3D('',#2205,#1822,#1823);
#1454=AXIS2_PLACEMENT_3D('',#2207,#1825,#1826);
#1455=AXIS2_PLACEMENT_3D('',#2208,#1827,#1828);
#1456=DIRECTION('axis',(0.,0.,1.));
#1457=DIRECTION('refdir',(1.,0.,0.));
#1458=DIRECTION('center_axis',(0.,0.,-1.));
#1459=DIRECTION('ref_axis',(1.,0.,0.));
#1460=DIRECTION('center_axis',(0.,0.,1.));
#1461=DIRECTION('ref_axis',(1.,0.,0.));
#1462=DIRECTION('',(0.707106781186548,-8.65956056235494E-17,0.707106781186547));
#1463=DIRECTION('center_axis',(0.,0.,1.));
#1464=DIRECTION('ref_axis',(1.,0.,0.));
#1465=DIRECTION('center_axis',(0.,0.,1.));
#1466=DIRECTION('ref_axis',(1.,0.,0.));
#1467=DIRECTION('',(-1.,0.,0.));
#1468=DIRECTION('',(0.,-1.,0.));
#1469=DIRECTION('',(-0.70710678118655,-0.707106781186545,0.));
#1470=DIRECTION('',(0.,-1.,0.));
#1471=DIRECTION('',(1.,-3.09060444219982E-16,0.));
#1472=DIRECTION('',(-1.,3.09060444219982E-16,0.));
#1473=DIRECTION('',(0.,-1.,0.));
#1474=DIRECTION('center_axis',(0.,0.,1.));
#1475=DIRECTION('ref_axis',(1.,0.,0.));
#1476=DIRECTION('center_axis',(0.,0.,1.));
#1477=DIRECTION('ref_axis',(1.,0.,0.));
#1478=DIRECTION('center_axis',(0.,0.,1.));
#1479=DIRECTION('ref_axis',(1.,0.,0.));
#1480=DIRECTION('center_axis',(0.,0.,1.));
#1481=DIRECTION('ref_axis',(1.,0.,0.));
#1482=DIRECTION('center_axis',(0.,0.,-1.));
#1483=DIRECTION('ref_axis',(1.,0.,0.));
#1484=DIRECTION('',(0.707106781186547,-8.65956056235493E-17,0.707106781186548));
#1485=DIRECTION('center_axis',(0.,0.,1.));
#1486=DIRECTION('ref_axis',(1.,0.,0.));
#1487=DIRECTION('center_axis',(0.,0.,-1.));
#1488=DIRECTION('ref_axis',(1.,0.,0.));
#1489=DIRECTION('',(0.707106781186548,-8.65956056235494E-17,0.707106781186547));
#1490=DIRECTION('center_axis',(0.,0.,1.));
#1491=DIRECTION('ref_axis',(1.,0.,0.));
#1492=DIRECTION('center_axis',(0.,0.,-1.));
#1493=DIRECTION('ref_axis',(1.,0.,0.));
#1494=DIRECTION('',(0.707106781186548,-8.65956056235494E-17,0.707106781186547));
#1495=DIRECTION('center_axis',(0.,0.,1.));
#1496=DIRECTION('ref_axis',(1.,0.,0.));
#1497=DIRECTION('center_axis',(0.,0.,-1.));
#1498=DIRECTION('ref_axis',(1.,0.,0.));
#1499=DIRECTION('',(0.707106781186548,-8.65956056235494E-17,0.707106781186547));
#1500=DIRECTION('center_axis',(0.,0.,1.));
#1501=DIRECTION('ref_axis',(1.,0.,0.));
#1502=DIRECTION('center_axis',(0.,-1.,0.));
#1503=DIRECTION('ref_axis',(0.707106781186578,0.,-0.707106781186517));
#1504=DIRECTION('center_axis',(0.,1.,0.));
#1505=DIRECTION('ref_axis',(1.,0.,0.));
#1506=DIRECTION('',(0.,-1.,0.));
#1507=DIRECTION('center_axis',(0.,-1.,0.));
#1508=DIRECTION('ref_axis',(0.707106781186578,0.,-0.707106781186517));
#1509=DIRECTION('',(0.,1.,0.));
#1510=DIRECTION('center_axis',(-3.40332626210626E-7,-0.999999999999942,
0.));
#1511=DIRECTION('ref_axis',(0.707106781186507,-2.40651500224392E-7,-0.707106781186547));
#1512=DIRECTION('',(3.40332626210626E-7,0.999999999999942,0.));
#1513=DIRECTION('center_axis',(3.40332587301746E-7,0.999999999999942,0.));
#1514=DIRECTION('ref_axis',(0.707106781186507,-2.40651500224392E-7,-0.707106781186547));
#1515=DIRECTION('',(-3.40332626210626E-7,-0.999999999999942,0.));
#1516=DIRECTION('center_axis',(0.,0.,-1.));
#1517=DIRECTION('ref_axis',(-1.,0.,0.));
#1518=DIRECTION('',(0.999999999999942,-3.40332587301746E-7,0.));
#1519=DIRECTION('',(3.40332506317492E-7,0.999999999999942,0.));
#1520=DIRECTION('',(0.,1.,0.));
#1521=DIRECTION('',(-1.,0.,0.));
#1522=DIRECTION('center_axis',(3.40332506317492E-7,0.999999999999942,0.));
#1523=DIRECTION('ref_axis',(-0.707106781186507,2.40651424859954E-7,-0.707106781186547));
#1524=DIRECTION('center_axis',(-3.40332508841368E-7,-0.999999999999942,
0.));
#1525=DIRECTION('ref_axis',(-0.999999999999942,3.40332508841368E-7,0.));
#1526=DIRECTION('center_axis',(3.40332587301746E-7,0.999999999999942,0.));
#1527=DIRECTION('ref_axis',(-0.707106781186507,2.40651424859954E-7,-0.707106781186547));
#1528=DIRECTION('',(-3.40332506317492E-7,-0.999999999999942,0.));
#1529=DIRECTION('center_axis',(0.,1.,0.));
#1530=DIRECTION('ref_axis',(-0.707106781186578,0.,-0.707106781186517));
#1531=DIRECTION('',(0.,-1.,0.));
#1532=DIRECTION('center_axis',(0.,-1.,0.));
#1533=DIRECTION('ref_axis',(-0.707106781186578,0.,-0.707106781186517));
#1534=DIRECTION('center_axis',(1.,0.,0.));
#1535=DIRECTION('ref_axis',(0.,-1.,0.));
#1536=DIRECTION('',(0.,0.,-1.));
#1537=DIRECTION('',(0.,-1.,0.));
#1538=DIRECTION('',(0.,0.,-1.));
#1539=DIRECTION('center_axis',(0.999999999999942,-3.40332626210626E-7,0.));
#1540=DIRECTION('ref_axis',(-3.40332626210626E-7,-0.999999999999942,0.));
#1541=DIRECTION('',(-3.40332626210626E-7,-0.999999999999942,0.));
#1542=DIRECTION('',(0.,0.,1.));
#1543=DIRECTION('center_axis',(-0.999999999999942,3.40332506317492E-7,0.));
#1544=DIRECTION('ref_axis',(3.40332506317492E-7,0.999999999999942,0.));
#1545=DIRECTION('',(0.,0.,-1.));
#1546=DIRECTION('',(3.40332506317492E-7,0.999999999999942,0.));
#1547=DIRECTION('',(0.,0.,-1.));
#1548=DIRECTION('center_axis',(-1.,0.,0.));
#1549=DIRECTION('ref_axis',(0.,1.,0.));
#1550=DIRECTION('',(0.,1.,0.));
#1551=DIRECTION('',(0.,0.,1.));
#1552=DIRECTION('center_axis',(0.,0.,1.));
#1553=DIRECTION('ref_axis',(1.,0.,0.));
#1554=DIRECTION('',(-0.999999999999942,3.40332587301746E-7,0.));
#1555=DIRECTION('center_axis',(0.,0.,1.));
#1556=DIRECTION('ref_axis',(3.40332629855666E-7,0.999999999999942,0.));
#1557=DIRECTION('',(1.22124574271748E-14,-1.,0.));
#1558=DIRECTION('',(8.82744061984924E-10,-1.,0.));
#1559=DIRECTION('',(0.,-1.,0.));
#1560=DIRECTION('center_axis',(0.,0.,1.));
#1561=DIRECTION('ref_axis',(-1.,0.,0.));
#1562=DIRECTION('',(1.,0.,0.));
#1563=DIRECTION('',(1.,-3.52625528237832E-10,0.));
#1564=DIRECTION('',(1.,1.22124532708765E-14,0.));
#1565=DIRECTION('center_axis',(0.,0.,1.));
#1566=DIRECTION('ref_axis',(-7.10542735760141E-14,-1.,0.));
#1567=DIRECTION('',(0.,1.,0.));
#1568=DIRECTION('center_axis',(0.,0.,-1.));
#1569=DIRECTION('ref_axis',(-0.707106781186761,0.707106781186334,0.));
#1570=DIRECTION('',(0.707106781186554,0.707106781186541,0.));
#1571=DIRECTION('center_axis',(0.,0.,1.));
#1572=DIRECTION('ref_axis',(0.707106781186743,-0.707106781186352,0.));
#1573=DIRECTION('',(0.,1.,0.));
#1574=DIRECTION('center_axis',(0.,0.,1.));
#1575=DIRECTION('ref_axis',(1.,-1.77635683940035E-14,0.));
#1576=DIRECTION('',(-1.,3.55271367880045E-14,0.));
#1577=DIRECTION('',(-0.999999999999942,3.40332587301746E-7,0.));
#1578=DIRECTION('',(1.,0.,0.));
#1579=DIRECTION('',(0.,-1.,0.));
#1580=DIRECTION('',(-0.382683432365038,-0.923879532511308,0.));
#1581=DIRECTION('',(-0.709274984163707,-0.704931909363999,0.));
#1582=DIRECTION('',(0.,-1.,0.));
#1583=DIRECTION('',(-0.999970040500227,0.00774067839237639,0.));
#1584=DIRECTION('',(-1.,6.54561123490948E-10,0.));
#1585=DIRECTION('',(-1.,0.,0.));
#1586=DIRECTION('',(0.,1.,0.));
#1587=DIRECTION('',(1.63859375230505E-9,1.,0.));
#1588=DIRECTION('',(3.40332564775483E-7,0.999999999999942,0.));
#1589=DIRECTION('',(0.999999675568566,0.000805520181599507,0.));
#1590=DIRECTION('',(1.,0.,0.));
#1591=DIRECTION('center_axis',(3.40332587301746E-7,0.999999999999942,0.));
#1592=DIRECTION('ref_axis',(-0.999999999999942,3.40332587301746E-7,0.));
#1593=DIRECTION('',(0.,0.,1.));
#1594=DIRECTION('',(-0.999999999999942,3.40332587301746E-7,0.));
#1595=DIRECTION('',(0.,0.,1.));
#1596=DIRECTION('center_axis',(0.,0.,1.));
#1597=DIRECTION('ref_axis',(1.,0.,0.));
#1598=DIRECTION('center_axis',(0.,0.,-1.));
#1599=DIRECTION('ref_axis',(1.,0.,0.));
#1600=DIRECTION('',(0.,0.,-1.));
#1601=DIRECTION('center_axis',(0.,0.,1.));
#1602=DIRECTION('ref_axis',(1.,0.,0.));
#1603=DIRECTION('center_axis',(0.,0.,1.));
#1604=DIRECTION('ref_axis',(1.,0.,0.));
#1605=DIRECTION('center_axis',(0.,0.,1.));
#1606=DIRECTION('ref_axis',(1.,0.,0.));
#1607=DIRECTION('center_axis',(0.,0.,1.));
#1608=DIRECTION('ref_axis',(1.,0.,0.));
#1609=DIRECTION('center_axis',(0.,0.,-1.));
#1610=DIRECTION('ref_axis',(1.,0.,0.));
#1611=DIRECTION('',(0.,0.,-1.));
#1612=DIRECTION('center_axis',(0.,0.,1.));
#1613=DIRECTION('ref_axis',(1.,0.,0.));
#1614=DIRECTION('center_axis',(0.,0.,1.));
#1615=DIRECTION('ref_axis',(1.,0.,0.));
#1616=DIRECTION('center_axis',(0.,0.,1.));
#1617=DIRECTION('ref_axis',(1.,0.,0.));
#1618=DIRECTION('center_axis',(0.,0.,1.));
#1619=DIRECTION('ref_axis',(1.,0.,0.));
#1620=DIRECTION('center_axis',(0.,0.,-1.));
#1621=DIRECTION('ref_axis',(1.,0.,0.));
#1622=DIRECTION('',(0.,0.,-1.));
#1623=DIRECTION('center_axis',(0.,0.,1.));
#1624=DIRECTION('ref_axis',(1.,0.,0.));
#1625=DIRECTION('center_axis',(0.,0.,1.));
#1626=DIRECTION('ref_axis',(1.,0.,0.));
#1627=DIRECTION('center_axis',(0.,0.,1.));
#1628=DIRECTION('ref_axis',(1.,0.,0.));
#1629=DIRECTION('center_axis',(0.,0.,1.));
#1630=DIRECTION('ref_axis',(1.,0.,0.));
#1631=DIRECTION('center_axis',(0.,0.,-1.));
#1632=DIRECTION('ref_axis',(1.,0.,0.));
#1633=DIRECTION('',(0.,0.,-1.));
#1634=DIRECTION('center_axis',(0.,0.,1.));
#1635=DIRECTION('ref_axis',(1.,0.,0.));
#1636=DIRECTION('center_axis',(0.,0.,1.));
#1637=DIRECTION('ref_axis',(1.,0.,0.));
#1638=DIRECTION('center_axis',(0.,0.,1.));
#1639=DIRECTION('ref_axis',(1.,0.,0.));
#1640=DIRECTION('center_axis',(0.,0.,1.));
#1641=DIRECTION('ref_axis',(1.,0.,0.));
#1642=DIRECTION('center_axis',(0.,0.,-1.));
#1643=DIRECTION('ref_axis',(1.,0.,0.));
#1644=DIRECTION('',(0.,0.,-1.));
#1645=DIRECTION('center_axis',(0.,0.,1.));
#1646=DIRECTION('ref_axis',(1.,0.,0.));
#1647=DIRECTION('center_axis',(0.,0.,1.));
#1648=DIRECTION('ref_axis',(1.,0.,0.));
#1649=DIRECTION('center_axis',(0.999999999048452,-4.362447914775E-5,0.));
#1650=DIRECTION('ref_axis',(4.362447914775E-5,0.999999999048452,0.));
#1651=DIRECTION('',(0.,0.,1.));
#1652=DIRECTION('',(4.362447914775E-5,0.999999999048452,0.));
#1653=DIRECTION('',(0.,0.,1.));
#1654=DIRECTION('',(4.362447914775E-5,0.999999999048452,0.));
#1655=DIRECTION('center_axis',(1.,0.,0.));
#1656=DIRECTION('ref_axis',(0.,1.,0.));
#1657=DIRECTION('',(0.,0.,1.));
#1658=DIRECTION('',(0.,1.,0.));
#1659=DIRECTION('',(0.,0.,1.));
#1660=DIRECTION('center_axis',(0.,1.,0.));
#1661=DIRECTION('ref_axis',(-1.,0.,0.));
#1662=DIRECTION('',(-1.,0.,0.));
#1663=DIRECTION('',(0.,0.,1.));
#1664=DIRECTION('',(0.,0.,1.));
#1665=DIRECTION('center_axis',(3.09060444219982E-16,1.,0.));
#1666=DIRECTION('ref_axis',(-1.,3.09060444219982E-16,0.));
#1667=DIRECTION('',(0.,0.,1.));
#1668=DIRECTION('',(-1.,3.09060444219982E-16,0.));
#1669=DIRECTION('',(-1.,3.09060444219982E-16,0.));
#1670=DIRECTION('center_axis',(-3.09060444219982E-16,-1.,0.));
#1671=DIRECTION('ref_axis',(1.,-3.09060444219982E-16,0.));
#1672=DIRECTION('',(0.,0.,1.));
#1673=DIRECTION('',(1.,-3.09060444219982E-16,0.));
#1674=DIRECTION('',(0.,0.,1.));
#1675=DIRECTION('center_axis',(-1.,0.,0.));
#1676=DIRECTION('ref_axis',(0.,-1.,0.));
#1677=DIRECTION('',(0.,0.,1.));
#1678=DIRECTION('',(0.,-1.,0.));
#1679=DIRECTION('center_axis',(-0.707106781186545,0.70710678118655,0.));
#1680=DIRECTION('ref_axis',(-0.70710678118655,-0.707106781186545,0.));
#1681=DIRECTION('',(0.,0.,1.));
#1682=DIRECTION('',(-0.70710678118655,-0.707106781186545,0.));
#1683=DIRECTION('',(0.,0.,1.));
#1684=DIRECTION('center_axis',(-1.,0.,0.));
#1685=DIRECTION('ref_axis',(0.,-1.,0.));
#1686=DIRECTION('',(0.,0.,1.));
#1687=DIRECTION('',(0.,-1.,0.));
#1688=DIRECTION('center_axis',(0.,1.,0.));
#1689=DIRECTION('ref_axis',(-1.,0.,0.));
#1690=DIRECTION('',(-1.,0.,0.));
#1691=DIRECTION('center_axis',(0.707106781186548,0.707106781186548,0.));
#1692=DIRECTION('ref_axis',(-0.707106781186548,0.707106781186548,0.));
#1693=DIRECTION('',(0.707106781186547,-0.707106781186547,0.));
#1694=DIRECTION('',(0.,0.,1.));
#1695=DIRECTION('',(-0.707106781186547,0.707106781186547,0.));
#1696=DIRECTION('',(0.,0.,1.));
#1697=DIRECTION('center_axis',(-3.4033256213208E-7,-0.999999999999942,0.));
#1698=DIRECTION('ref_axis',(0.999999999999942,-3.4033256213208E-7,0.));
#1699=DIRECTION('',(-0.999999999999942,3.4033256213208E-7,0.));
#1700=DIRECTION('',(0.,0.,1.));
#1701=DIRECTION('',(0.999999999999942,-3.4033256213208E-7,0.));
#1702=DIRECTION('center_axis',(0.,-1.,0.));
#1703=DIRECTION('ref_axis',(1.,0.,0.));
#1704=DIRECTION('',(1.,0.,0.));
#1705=DIRECTION('',(0.,0.,1.));
#1706=DIRECTION('',(1.,0.,0.));
#1707=DIRECTION('center_axis',(-4.36244791422243E-5,-0.999999999048452,
0.));
#1708=DIRECTION('ref_axis',(0.999999999048452,-4.36244791422243E-5,0.));
#1709=DIRECTION('',(0.999999999048452,-4.36244791422243E-5,0.));
#1710=DIRECTION('',(0.999999999048452,-4.36244791422243E-5,0.));
#1711=DIRECTION('center_axis',(0.,0.,1.));
#1712=DIRECTION('ref_axis',(1.,0.,0.));
#1713=DIRECTION('',(0.,-1.,0.));
#1714=DIRECTION('',(1.,0.,0.));
#1715=DIRECTION('',(0.999999675568566,0.000805520181599507,0.));
#1716=DIRECTION('',(3.40332564775483E-7,0.999999999999942,0.));
#1717=DIRECTION('',(1.63859375230505E-9,1.,0.));
#1718=DIRECTION('',(0.,1.,0.));
#1719=DIRECTION('',(-1.,6.54561123490948E-10,0.));
#1720=DIRECTION('',(-0.999970040500227,0.00774067839237639,0.));
#1721=DIRECTION('',(0.,-1.,0.));
#1722=DIRECTION('',(-0.709274984163707,-0.704931909363999,0.));
#1723=DIRECTION('center_axis',(-0.704931909363999,0.709274984163707,0.));
#1724=DIRECTION('ref_axis',(-0.709274984163707,-0.704931909363999,0.));
#1725=DIRECTION('',(0.,0.,1.));
#1726=DIRECTION('',(0.,0.,1.));
#1727=DIRECTION('center_axis',(-1.,0.,0.));
#1728=DIRECTION('ref_axis',(0.,-1.,0.));
#1729=DIRECTION('',(0.,0.,1.));
#1730=DIRECTION('center_axis',(0.00774067839237639,0.999970040500227,0.));
#1731=DIRECTION('ref_axis',(-0.999970040500227,0.00774067839237639,0.));
#1732=DIRECTION('',(0.,0.,1.));
#1733=DIRECTION('center_axis',(0.,-1.,0.));
#1734=DIRECTION('ref_axis',(1.,0.,0.));
#1735=DIRECTION('',(0.,0.,1.));
#1736=DIRECTION('',(0.,0.,1.));
#1737=DIRECTION('center_axis',(-1.,0.,0.));
#1738=DIRECTION('ref_axis',(0.,-1.,0.));
#1739=DIRECTION('',(0.,0.,1.));
#1740=DIRECTION('center_axis',(-0.923879532511308,0.382683432365038,0.));
#1741=DIRECTION('ref_axis',(-0.382683432365038,-0.923879532511308,0.));
#1742=DIRECTION('',(-0.382683432365038,-0.923879532511308,0.));
#1743=DIRECTION('center_axis',(0.000805520181599507,-0.999999675568566,
0.));
#1744=DIRECTION('ref_axis',(0.999999675568566,0.000805520181599507,0.));
#1745=DIRECTION('',(0.,0.,1.));
#1746=DIRECTION('center_axis',(0.999999999999942,-3.40332564775483E-7,0.));
#1747=DIRECTION('ref_axis',(3.40332564775483E-7,0.999999999999942,0.));
#1748=DIRECTION('',(0.,0.,1.));
#1749=DIRECTION('center_axis',(1.,-1.63859375230505E-9,0.));
#1750=DIRECTION('ref_axis',(1.63859375230505E-9,1.,0.));
#1751=DIRECTION('',(0.,0.,1.));
#1752=DIRECTION('center_axis',(1.,0.,0.));
#1753=DIRECTION('ref_axis',(0.,1.,0.));
#1754=DIRECTION('center_axis',(6.54561123490948E-10,1.,0.));
#1755=DIRECTION('ref_axis',(-1.,6.54561123490948E-10,0.));
#1756=DIRECTION('center_axis',(0.,0.,1.));
#1757=DIRECTION('ref_axis',(-0.707106781186761,0.707106781186334,0.));
#1758=DIRECTION('center_axis',(0.,0.,1.));
#1759=DIRECTION('ref_axis',(-0.707106781186761,0.707106781186334,0.));
#1760=DIRECTION('',(0.,0.,1.));
#1761=DIRECTION('',(0.,0.,1.));
#1762=DIRECTION('center_axis',(1.,0.,0.));
#1763=DIRECTION('ref_axis',(0.,1.,0.));
#1764=DIRECTION('',(0.,-1.,0.));
#1765=DIRECTION('',(0.,0.,1.));
#1766=DIRECTION('center_axis',(0.,0.,1.));
#1767=DIRECTION('ref_axis',(-7.10542735760141E-14,-1.,0.));
#1768=DIRECTION('center_axis',(0.,0.,1.));
#1769=DIRECTION('ref_axis',(-7.10542735760141E-14,-1.,0.));
#1770=DIRECTION('',(0.,0.,1.));
#1771=DIRECTION('center_axis',(1.22124532708765E-14,-1.,0.));
#1772=DIRECTION('ref_axis',(1.,1.22124532708765E-14,0.));
#1773=DIRECTION('',(-1.,-1.22124532708765E-14,0.));
#1774=DIRECTION('',(0.,0.,1.));
#1775=DIRECTION('center_axis',(-3.52625528237832E-10,-1.,0.));
#1776=DIRECTION('ref_axis',(1.,-3.52625528237832E-10,0.));
#1777=DIRECTION('',(1.,-3.52625528237832E-10,0.));
#1778=DIRECTION('',(0.,0.,1.));
#1779=DIRECTION('center_axis',(0.,-1.,0.));
#1780=DIRECTION('ref_axis',(1.,0.,0.));
#1781=DIRECTION('',(1.,0.,0.));
#1782=DIRECTION('',(0.,0.,1.));
#1783=DIRECTION('center_axis',(0.,0.,1.));
#1784=DIRECTION('ref_axis',(-1.,0.,0.));
#1785=DIRECTION('center_axis',(0.,0.,1.));
#1786=DIRECTION('ref_axis',(-1.,0.,0.));
#1787=DIRECTION('',(0.,0.,1.));
#1788=DIRECTION('center_axis',(-1.,0.,0.));
#1789=DIRECTION('ref_axis',(0.,-1.,0.));
#1790=DIRECTION('',(0.,-1.,0.));
#1791=DIRECTION('',(0.,0.,1.));
#1792=DIRECTION('center_axis',(-1.,-8.82744061984924E-10,0.));
#1793=DIRECTION('ref_axis',(8.82744061984924E-10,-1.,0.));
#1794=DIRECTION('',(8.82744061984924E-10,-1.,0.));
#1795=DIRECTION('',(0.,0.,1.));
#1796=DIRECTION('center_axis',(-1.,-1.22124574271748E-14,0.));
#1797=DIRECTION('ref_axis',(1.22124574271748E-14,-1.,0.));
#1798=DIRECTION('',(-1.22124574271748E-14,1.,0.));
#1799=DIRECTION('',(0.,0.,1.));
#1800=DIRECTION('center_axis',(0.,0.,1.));
#1801=DIRECTION('ref_axis',(3.40332629855666E-7,0.999999999999942,0.));
#1802=DIRECTION('center_axis',(0.,0.,1.));
#1803=DIRECTION('ref_axis',(3.40332629855666E-7,0.999999999999942,0.));
#1804=DIRECTION('center_axis',(3.55271367880045E-14,1.,0.));
#1805=DIRECTION('ref_axis',(-1.,3.55271367880045E-14,0.));
#1806=DIRECTION('',(-1.,3.55271367880045E-14,0.));
#1807=DIRECTION('',(0.,0.,1.));
#1808=DIRECTION('center_axis',(0.,0.,1.));
#1809=DIRECTION('ref_axis',(1.,-1.77635683940035E-14,0.));
#1810=DIRECTION('center_axis',(0.,0.,1.));
#1811=DIRECTION('ref_axis',(1.,-1.77635683940035E-14,0.));
#1812=DIRECTION('',(0.,0.,1.));
#1813=DIRECTION('center_axis',(1.,0.,0.));
#1814=DIRECTION('ref_axis',(0.,1.,0.));
#1815=DIRECTION('',(0.,1.,0.));
#1816=DIRECTION('',(0.,0.,1.));
#1817=DIRECTION('center_axis',(0.,0.,1.));
#1818=DIRECTION('ref_axis',(0.707106781186743,-0.707106781186352,0.));
#1819=DIRECTION('center_axis',(0.,0.,1.));
#1820=DIRECTION('ref_axis',(0.707106781186743,-0.707106781186352,0.));
#1821=DIRECTION('',(0.,0.,1.));
#1822=DIRECTION('center_axis',(0.707106781186541,-0.707106781186554,0.));
#1823=DIRECTION('ref_axis',(0.707106781186554,0.707106781186541,0.));
#1824=DIRECTION('',(0.707106781186554,0.707106781186541,0.));
#1825=DIRECTION('center_axis',(0.,0.,1.));
#1826=DIRECTION('ref_axis',(1.,0.,0.));
#1827=DIRECTION('center_axis',(0.,0.,1.));
#1828=DIRECTION('ref_axis',(1.,0.,0.));
#1829=CARTESIAN_POINT('',(0.,0.,0.));
#1830=CARTESIAN_POINT('Origin',(172.280999963407,35.50532237703,4.));
#1831=CARTESIAN_POINT('',(162.780999963407,35.50532237703,1.));
#1832=CARTESIAN_POINT('Origin',(172.280999963407,35.50532237703,1.));
#1833=CARTESIAN_POINT('',(168.780999963407,35.50532237703,7.));
#1834=CARTESIAN_POINT('',(165.780999963407,35.50532237703,4.));
#1835=CARTESIAN_POINT('Origin',(172.280999963407,35.50532237703,7.));
#1836=CARTESIAN_POINT('Origin',(182.42794097682,77.5219409768202,1.));
#1837=CARTESIAN_POINT('',(348.062,10.,1.));
#1838=CARTESIAN_POINT('',(10.,10.,1.));
#1839=CARTESIAN_POINT('',(265.24497048841,10.,1.));
#1840=CARTESIAN_POINT('',(348.062,76.5375,1.));
#1841=CARTESIAN_POINT('',(348.062,77.0297204884101,1.));
#1842=CARTESIAN_POINT('',(354.85588195364,83.3313819536403,1.));
#1843=CARTESIAN_POINT('',(310.29653646523,38.7720364652302,1.));
#1844=CARTESIAN_POINT('',(354.85588195364,145.04388195364,1.));
#1845=CARTESIAN_POINT('',(354.85588195364,111.28291146523,1.));
#1846=CARTESIAN_POINT('',(12.7059660500313,145.04388195364,1.));
#1847=CARTESIAN_POINT('',(97.5669535134258,145.04388195364,1.));
#1848=CARTESIAN_POINT('',(10.,145.04388195364,1.));
#1849=CARTESIAN_POINT('',(354.85588195364,145.04388195364,1.));
#1850=CARTESIAN_POINT('',(10.,10.,1.));
#1851=CARTESIAN_POINT('',(103.249999963407,35.5053223770301,1.));
#1852=CARTESIAN_POINT('Origin',(112.749999963407,35.5053223770301,1.));
#1853=CARTESIAN_POINT('',(38.9559999634073,130.75532237703,1.));
#1854=CARTESIAN_POINT('Origin',(48.4559999634073,130.75532237703,1.));
#1855=CARTESIAN_POINT('',(215.168999963407,130.75532237703,1.));
#1856=CARTESIAN_POINT('Origin',(224.668999963407,130.75532237703,1.));
#1857=CARTESIAN_POINT('',(38.9559999634072,73.6053223770301,1.));
#1858=CARTESIAN_POINT('Origin',(48.4559999634072,73.6053223770301,1.));
#1859=CARTESIAN_POINT('Origin',(112.749999963407,35.5053223770301,4.));
#1860=CARTESIAN_POINT('',(109.249999963407,35.5053223770301,7.));
#1861=CARTESIAN_POINT('',(106.249999963407,35.5053223770301,4.));
#1862=CARTESIAN_POINT('Origin',(112.749999963407,35.5053223770301,7.));
#1863=CARTESIAN_POINT('Origin',(48.4559999634072,73.6053223770301,4.));
#1864=CARTESIAN_POINT('',(44.9559999634073,73.6053223770301,7.));
#1865=CARTESIAN_POINT('',(41.9559999634073,73.6053223770301,4.));
#1866=CARTESIAN_POINT('Origin',(48.4559999634072,73.6053223770301,7.));
#1867=CARTESIAN_POINT('Origin',(48.4559999634073,130.75532237703,4.));
#1868=CARTESIAN_POINT('',(44.9559999634073,130.75532237703,7.));
#1869=CARTESIAN_POINT('',(41.9559999634073,130.75532237703,4.));
#1870=CARTESIAN_POINT('Origin',(48.4559999634073,130.75532237703,7.));
#1871=CARTESIAN_POINT('Origin',(224.668999963407,130.75532237703,4.));
#1872=CARTESIAN_POINT('',(221.168999963407,130.75532237703,7.));
#1873=CARTESIAN_POINT('',(218.168999963407,130.75532237703,4.));
#1874=CARTESIAN_POINT('Origin',(224.668999963407,130.75532237703,7.));
#1875=CARTESIAN_POINT('Origin',(347.605746090814,146.475004256865,15.));
#1876=CARTESIAN_POINT('',(349.605746090814,146.856122397593,15.));
#1877=CARTESIAN_POINT('',(347.605746090814,146.856122397593,13.));
#1878=CARTESIAN_POINT('Origin',(347.605746090814,146.856122397593,15.));
#1879=CARTESIAN_POINT('',(347.605746090814,145.14388195364,13.));
#1880=CARTESIAN_POINT('',(347.605746090814,146.475004256865,13.));
#1881=CARTESIAN_POINT('',(349.605746090814,145.14388195364,15.));
#1882=CARTESIAN_POINT('Origin',(347.605746090814,145.14388195364,15.));
#1883=CARTESIAN_POINT('',(349.605746090814,146.475004256865,15.));
#1884=CARTESIAN_POINT('Origin',(347.605745993058,146.568883974376,15.));
#1885=CARTESIAN_POINT('',(349.605746154716,147.043883740433,15.));
#1886=CARTESIAN_POINT('',(349.605745993057,146.568883293711,15.));
#1887=CARTESIAN_POINT('',(347.605746154716,147.043884421098,13.));
#1888=CARTESIAN_POINT('Origin',(347.605746154716,147.043884421098,15.));
#1889=CARTESIAN_POINT('',(347.605745993058,146.568883974376,13.));
#1890=CARTESIAN_POINT('Origin',(340.000005098345,146.093886116136,13.));
#1891=CARTESIAN_POINT('',(332.394264105879,147.043889598061,13.));
#1892=CARTESIAN_POINT('',(347.427943687651,147.04388448161,13.));
#1893=CARTESIAN_POINT('',(332.394264041975,146.856121716928,13.));
#1894=CARTESIAN_POINT('',(332.394263912269,146.475005210773,13.));
#1895=CARTESIAN_POINT('',(332.394264041975,145.14388195364,13.));
#1896=CARTESIAN_POINT('',(332.394264041975,145.618884034841,13.));
#1897=CARTESIAN_POINT('',(174.999845707217,145.14388195364,13.));
#1898=CARTESIAN_POINT('Origin',(332.394263912269,146.475005210773,15.));
#1899=CARTESIAN_POINT('',(330.394264041975,146.856122397593,15.));
#1900=CARTESIAN_POINT('Origin',(332.394264041975,146.856121716928,15.));
#1901=CARTESIAN_POINT('',(330.394264105879,147.043890278726,15.));
#1902=CARTESIAN_POINT('Origin',(332.394264105879,147.043889598059,15.));
#1903=CARTESIAN_POINT('',(330.394263912269,146.475005891438,15.));
#1904=CARTESIAN_POINT('Origin',(332.394264041975,145.618884034841,15.));
#1905=CARTESIAN_POINT('',(330.394264041975,145.14388195364,15.));
#1906=CARTESIAN_POINT('',(330.394264041975,145.618884034841,15.));
#1907=CARTESIAN_POINT('Origin',(332.394264041975,145.14388195364,15.));
#1908=CARTESIAN_POINT('Origin',(349.605746090814,146.856122397593,20.));
#1909=CARTESIAN_POINT('',(349.605746090814,145.143881953546,20.));
#1910=CARTESIAN_POINT('',(349.605746090814,145.14388195364,10.));
#1911=CARTESIAN_POINT('',(349.605746090814,146.856122397593,20.));
#1912=CARTESIAN_POINT('',(349.605746090814,112.189061113713,20.));
#1913=CARTESIAN_POINT('',(349.605746090814,146.856122397593,20.));
#1914=CARTESIAN_POINT('Origin',(349.605746154716,147.043883740433,20.));
#1915=CARTESIAN_POINT('',(349.605746154716,147.043883740433,20.));
#1916=CARTESIAN_POINT('',(349.605734324423,112.282913337106,20.));
#1917=CARTESIAN_POINT('',(349.605746154716,147.043883740433,10.));
#1918=CARTESIAN_POINT('Origin',(330.394264041975,146.856122397593,20.));
#1919=CARTESIAN_POINT('',(330.394264105879,147.043890278726,20.));
#1920=CARTESIAN_POINT('',(330.394264105879,147.043890278726,10.));
#1921=CARTESIAN_POINT('',(330.394264041975,146.856122397593,20.));
#1922=CARTESIAN_POINT('',(330.394252243639,112.189035934843,20.));
#1923=CARTESIAN_POINT('',(330.394264041975,146.856122397593,20.));
#1924=CARTESIAN_POINT('Origin',(330.394264041975,145.143881953546,20.));
#1925=CARTESIAN_POINT('',(330.394264041975,145.143881953546,20.));
#1926=CARTESIAN_POINT('',(330.394264041975,111.33294089169,20.));
#1927=CARTESIAN_POINT('',(330.394264041975,145.14388195364,10.));
#1928=CARTESIAN_POINT('Origin',(182.42794097682,77.5219998298337,20.));
#1929=CARTESIAN_POINT('',(9.00000034033262,147.043999659667,20.));
#1930=CARTESIAN_POINT('',(354.85588195364,147.04388195364,20.));
#1931=CARTESIAN_POINT('',(7.99999999999997,146.043999659667,20.));
#1932=CARTESIAN_POINT('Origin',(8.99999999999999,146.043999659667,20.));
#1933=CARTESIAN_POINT('',(7.99999999999997,145.044,20.));
#1934=CARTESIAN_POINT('',(8.,145.044,20.));
#1935=CARTESIAN_POINT('',(8.00000011920929,10.,20.));
#1936=CARTESIAN_POINT('',(8.,145.044,20.));
#1937=CARTESIAN_POINT('',(8.00000011920929,9.00000011920929,20.));
#1938=CARTESIAN_POINT('',(8.00000011920929,10.,20.));
#1939=CARTESIAN_POINT('',(9.0000001192093,8.00000011920929,20.));
#1940=CARTESIAN_POINT('Origin',(9.00000011920929,9.00000011920929,20.));
#1941=CARTESIAN_POINT('',(10.,8.00000011920929,20.));
#1942=CARTESIAN_POINT('',(9.00000011920929,8.00000011920929,20.));
#1943=CARTESIAN_POINT('',(348.062,8.,20.));
#1944=CARTESIAN_POINT('',(10.,8.00000011920929,20.));
#1945=CARTESIAN_POINT('',(349.062,8.00000000000001,20.));
#1946=CARTESIAN_POINT('',(349.062,8.00000000000001,20.));
#1947=CARTESIAN_POINT('',(350.062,8.99999999999999,20.));
#1948=CARTESIAN_POINT('Origin',(349.062,8.99999999999995,20.));
#1949=CARTESIAN_POINT('',(350.062,76.1232864376269,20.));
#1950=CARTESIAN_POINT('',(350.062,10.,20.));
#1951=CARTESIAN_POINT('',(350.354893218814,76.8303932188135,20.));
#1952=CARTESIAN_POINT('Origin',(351.062000000001,76.1232864376267,20.));
#1953=CARTESIAN_POINT('',(356.562988734827,83.0384887348268,20.));
#1954=CARTESIAN_POINT('',(350.354893218814,76.8303932188135,20.));
#1955=CARTESIAN_POINT('',(356.85588195364,83.7455955160134,20.));
#1956=CARTESIAN_POINT('Origin',(355.85588195364,83.7455955160136,20.));
#1957=CARTESIAN_POINT('',(356.85588195364,146.04388195364,20.));
#1958=CARTESIAN_POINT('',(356.85588195364,83.7455955160134,20.));
#1959=CARTESIAN_POINT('',(355.85588195364,147.04388195364,20.));
#1960=CARTESIAN_POINT('Origin',(355.85588195364,146.04388195364,20.));
#1961=CARTESIAN_POINT('',(354.85588195364,147.04388195364,20.));
#1962=CARTESIAN_POINT('',(355.85588195364,147.04388195364,20.));
#1963=CARTESIAN_POINT('',(354.85588195364,147.04388195364,20.));
#1964=CARTESIAN_POINT('',(354.95588195364,145.14388195364,20.));
#1965=CARTESIAN_POINT('',(354.85588195364,145.14388195364,20.));
#1966=CARTESIAN_POINT('',(354.95588195364,83.3313819536403,20.));
#1967=CARTESIAN_POINT('',(354.95588195364,145.14388195364,20.));
#1968=CARTESIAN_POINT('',(354.926592631759,83.2606712755216,20.));
#1969=CARTESIAN_POINT('',(354.95588195364,83.3313819536403,20.));
#1970=CARTESIAN_POINT('',(348.162,76.5375,20.));
#1971=CARTESIAN_POINT('',(354.926592631759,83.2606712755216,20.));
#1972=CARTESIAN_POINT('',(348.162,9.89922568768714,20.));
#1973=CARTESIAN_POINT('',(348.162,10.,20.));
#1974=CARTESIAN_POINT('',(348.062,9.89999977871776,20.));
#1975=CARTESIAN_POINT('',(348.162,9.89922568768714,20.));
#1976=CARTESIAN_POINT('',(10.,9.9,20.));
#1977=CARTESIAN_POINT('',(348.062,9.89999977871776,20.));
#1978=CARTESIAN_POINT('',(9.89999977871776,9.9,20.));
#1979=CARTESIAN_POINT('',(10.,9.9,20.));
#1980=CARTESIAN_POINT('',(9.89999977871776,10.,20.));
#1981=CARTESIAN_POINT('',(9.89999977871776,9.9,20.));
#1982=CARTESIAN_POINT('',(9.90000000000002,145.044000034033,20.));
#1983=CARTESIAN_POINT('',(9.89999977871776,10.,20.));
#1984=CARTESIAN_POINT('',(9.90000003396574,145.143801654113,20.));
#1985=CARTESIAN_POINT('',(9.90000000000001,145.044000034033,20.));
#1986=CARTESIAN_POINT('',(9.99968631608823,145.143881953452,20.));
#1987=CARTESIAN_POINT('',(9.90000003396575,145.143801654113,20.));
#1988=CARTESIAN_POINT('',(354.85588195364,145.14388195364,20.));
#1989=CARTESIAN_POINT('Origin',(354.85588195364,147.04388195364,0.));
#1990=CARTESIAN_POINT('',(354.85588195364,147.04388195364,0.));
#1991=CARTESIAN_POINT('',(354.85588195364,147.04388195364,0.));
#1992=CARTESIAN_POINT('',(9.00000034033262,147.043999659667,0.));
#1993=CARTESIAN_POINT('',(354.85588195364,147.04388195364,0.));
#1994=CARTESIAN_POINT('',(9.00000034033262,147.043999659667,0.));
#1995=CARTESIAN_POINT('Origin',(224.668999963407,130.75532237703,0.));
#1996=CARTESIAN_POINT('',(222.668999963407,130.75532237703,7.));
#1997=CARTESIAN_POINT('Origin',(224.668999963407,130.75532237703,7.));
#1998=CARTESIAN_POINT('',(222.668999963407,130.75532237703,1.));
#1999=CARTESIAN_POINT('',(222.668999963407,130.75532237703,0.));
#2000=CARTESIAN_POINT('Origin',(224.668999963407,130.75532237703,1.));
#2001=CARTESIAN_POINT('Origin',(224.668999963407,130.75532237703,7.));
#2002=CARTESIAN_POINT('Origin',(224.668999963407,130.75532237703,1.));
#2003=CARTESIAN_POINT('Origin',(48.4559999634073,130.75532237703,0.));
#2004=CARTESIAN_POINT('',(46.4559999634073,130.75532237703,7.));
#2005=CARTESIAN_POINT('Origin',(48.4559999634073,130.75532237703,7.));
#2006=CARTESIAN_POINT('',(46.4559999634073,130.75532237703,1.));
#2007=CARTESIAN_POINT('',(46.4559999634073,130.75532237703,0.));
#2008=CARTESIAN_POINT('Origin',(48.4559999634073,130.75532237703,1.));
#2009=CARTESIAN_POINT('Origin',(48.4559999634073,130.75532237703,7.));
#2010=CARTESIAN_POINT('Origin',(48.4559999634073,130.75532237703,1.));
#2011=CARTESIAN_POINT('Origin',(172.280999963407,35.50532237703,0.));
#2012=CARTESIAN_POINT('',(170.280999963407,35.50532237703,7.));
#2013=CARTESIAN_POINT('Origin',(172.280999963407,35.50532237703,7.));
#2014=CARTESIAN_POINT('',(170.280999963407,35.50532237703,1.));
#2015=CARTESIAN_POINT('',(170.280999963407,35.50532237703,0.));
#2016=CARTESIAN_POINT('Origin',(172.280999963407,35.50532237703,1.));
#2017=CARTESIAN_POINT('Origin',(172.280999963407,35.50532237703,7.));
#2018=CARTESIAN_POINT('Origin',(172.280999963407,35.50532237703,1.));
#2019=CARTESIAN_POINT('Origin',(48.4559999634072,73.6053223770301,0.));
#2020=CARTESIAN_POINT('',(46.4559999634072,73.6053223770301,7.));
#2021=CARTESIAN_POINT('Origin',(48.4559999634072,73.6053223770301,7.));
#2022=CARTESIAN_POINT('',(46.4559999634072,73.6053223770301,1.));
#2023=CARTESIAN_POINT('',(46.4559999634072,73.6053223770301,0.));
#2024=CARTESIAN_POINT('Origin',(48.4559999634072,73.6053223770301,1.));
#2025=CARTESIAN_POINT('Origin',(48.4559999634072,73.6053223770301,7.));
#2026=CARTESIAN_POINT('Origin',(48.4559999634072,73.6053223770301,1.));
#2027=CARTESIAN_POINT('Origin',(112.749999963407,35.5053223770301,0.));
#2028=CARTESIAN_POINT('',(110.749999963407,35.5053223770301,7.));
#2029=CARTESIAN_POINT('Origin',(112.749999963407,35.5053223770301,7.));
#2030=CARTESIAN_POINT('',(110.749999963407,35.5053223770301,1.));
#2031=CARTESIAN_POINT('',(110.749999963407,35.5053223770301,0.));
#2032=CARTESIAN_POINT('Origin',(112.749999963407,35.5053223770301,1.));
#2033=CARTESIAN_POINT('Origin',(112.749999963407,35.5053223770301,7.));
#2034=CARTESIAN_POINT('Origin',(9.99968195364033,145.04388195364,0.));
#2035=CARTESIAN_POINT('',(9.99968195879004,145.044,0.));
#2036=CARTESIAN_POINT('',(9.99968195879004,145.044,3.));
#2037=CARTESIAN_POINT('',(9.99968195879004,145.044,0.));
#2038=CARTESIAN_POINT('',(9.99968195364033,145.04388195364,3.));
#2039=CARTESIAN_POINT('',(9.99968195364033,145.04388195364,3.));
#2040=CARTESIAN_POINT('',(9.99968195364033,145.04388195364,0.));
#2041=CARTESIAN_POINT('',(9.99968195364033,145.04388195364,0.));
#2042=CARTESIAN_POINT('',(9.99968195364033,145.04388195364,0.));
#2043=CARTESIAN_POINT('Origin',(10.,9.9,0.));
#2044=CARTESIAN_POINT('',(10.,145.04388195364,3.));
#2045=CARTESIAN_POINT('',(10.,145.04388195364,0.));
#2046=CARTESIAN_POINT('',(10.,10.,3.));
#2047=CARTESIAN_POINT('',(10.,10.,3.));
#2048=CARTESIAN_POINT('',(10.,10.,0.));
#2049=CARTESIAN_POINT('Origin',(10.,9.9,0.));
#2050=CARTESIAN_POINT('',(10.,9.9,3.));
#2051=CARTESIAN_POINT('',(9.89999977871776,9.9,3.));
#2052=CARTESIAN_POINT('',(9.97499994467944,9.9,3.));
#2053=CARTESIAN_POINT('',(9.89999977871776,9.9,0.));
#2054=CARTESIAN_POINT('',(10.,9.9,0.));
#2055=CARTESIAN_POINT('Origin',(354.85588195364,145.04388195364,0.));
#2056=CARTESIAN_POINT('',(12.7059660500313,145.04388195364,0.));
#2057=CARTESIAN_POINT('',(12.7059660500313,145.04388195364,0.));
#2058=CARTESIAN_POINT('',(354.85588195364,145.04388195364,0.));
#2059=CARTESIAN_POINT('',(354.85588195364,145.04388195364,3.));
#2060=CARTESIAN_POINT('Origin',(12.7059660500313,145.04388195364,0.));
#2061=CARTESIAN_POINT('',(354.85588195364,145.04388195364,3.));
#2062=CARTESIAN_POINT('',(354.85588195364,145.04388195364,0.));
#2063=CARTESIAN_POINT('',(12.7059660500313,145.04388195364,3.));
#2064=CARTESIAN_POINT('',(354.85588195364,145.04388195364,3.));
#2065=CARTESIAN_POINT('',(12.7059660500313,145.04388195364,0.));
#2066=CARTESIAN_POINT('Origin',(354.85588195364,145.04388195364,0.));
#2067=CARTESIAN_POINT('',(354.85588195364,83.3313819536403,3.));
#2068=CARTESIAN_POINT('',(354.85588195364,83.3313819536403,0.));
#2069=CARTESIAN_POINT('',(354.85588195364,85.3313819536403,3.));
#2070=CARTESIAN_POINT('Origin',(354.85588195364,83.3313819536403,0.));
#2071=CARTESIAN_POINT('',(348.062,76.5375,3.));
#2072=CARTESIAN_POINT('',(348.062,76.5375,0.));
#2073=CARTESIAN_POINT('',(348.062,76.5375,3.));
#2074=CARTESIAN_POINT('',(354.85588195364,83.3313819536403,0.));
#2075=CARTESIAN_POINT('Origin',(348.062,76.5375,0.));
#2076=CARTESIAN_POINT('',(348.062,10.,3.));
#2077=CARTESIAN_POINT('',(348.062,10.,0.));
#2078=CARTESIAN_POINT('',(348.062,74.5375,3.));
#2079=CARTESIAN_POINT('Origin',(348.062,10.,0.));
#2080=CARTESIAN_POINT('',(10.,10.,3.));
#2081=CARTESIAN_POINT('Origin',(354.926592631759,83.2606712755216,0.));
#2082=CARTESIAN_POINT('',(354.85588195364,83.3313819536403,0.));
#2083=CARTESIAN_POINT('',(354.926592631759,83.2606712755216,0.));
#2084=CARTESIAN_POINT('',(354.85588195364,83.3313819536403,0.));
#2085=CARTESIAN_POINT('',(354.85588195364,83.3313819536403,0.));
#2086=CARTESIAN_POINT('',(354.926592631759,83.2606712755216,3.));
#2087=CARTESIAN_POINT('',(354.85588195364,83.3313819536403,3.));
#2088=CARTESIAN_POINT('',(354.926592631759,83.2606712755216,0.));
#2089=CARTESIAN_POINT('Origin',(9.99968195879004,145.044000000108,0.));
#2090=CARTESIAN_POINT('',(10.,145.044,0.));
#2091=CARTESIAN_POINT('',(10.,145.044,0.));
#2092=CARTESIAN_POINT('',(10.,145.044,3.));
#2093=CARTESIAN_POINT('',(10.,145.044,0.));
#2094=CARTESIAN_POINT('',(10.,145.044,3.));
#2095=CARTESIAN_POINT('Origin',(354.85588195364,83.3313819536403,0.));
#2096=CARTESIAN_POINT('',(354.95588195364,83.3313819536403,0.));
#2097=CARTESIAN_POINT('',(354.85588195364,83.3313819536403,0.));
#2098=CARTESIAN_POINT('',(354.95588195364,83.3313819536403,3.));
#2099=CARTESIAN_POINT('',(354.95588195364,83.3313819536403,0.));
#2100=CARTESIAN_POINT('',(354.85588195364,83.3313819536403,3.));
#2101=CARTESIAN_POINT('Origin',(10.,145.044,0.));
#2102=CARTESIAN_POINT('',(10.,145.044,0.));
#2103=CARTESIAN_POINT('',(10.,145.044,3.));
#2104=CARTESIAN_POINT('Origin',(182.47778195366,114.23763195364,3.));
#2105=CARTESIAN_POINT('',(354.95588195364,145.14388195364,3.));
#2106=CARTESIAN_POINT('',(354.95588195364,129.69075695364,3.));
#2107=CARTESIAN_POINT('',(9.99968631608824,145.143881953452,3.));
#2108=CARTESIAN_POINT('',(96.2387341348743,145.14388195364,3.));
#2109=CARTESIAN_POINT('',(9.90000003396575,145.143801654113,3.));
#2110=CARTESIAN_POINT('',(9.87054929527653,145.143777930941,3.));
#2111=CARTESIAN_POINT('',(9.90000000000001,145.044000034033,3.));
#2112=CARTESIAN_POINT('',(9.89997701155626,77.4970000255328,3.));
#2113=CARTESIAN_POINT('',(9.89999977871776,10.,3.));
#2114=CARTESIAN_POINT('',(9.89999977867679,9.97500000004096,3.));
#2115=CARTESIAN_POINT('',(9.89999977871776,9.925,3.));
#2116=CARTESIAN_POINT('',(348.062,9.89999977871776,3.));
#2117=CARTESIAN_POINT('',(265.262648145924,9.89999983291499,3.));
#2118=CARTESIAN_POINT('',(348.162,9.89922568768714,3.));
#2119=CARTESIAN_POINT('',(265.175512914879,10.5416166408378,3.));
#2120=CARTESIAN_POINT('',(348.162,76.5375,3.));
#2121=CARTESIAN_POINT('',(348.162,61.5764019103319,3.));
#2122=CARTESIAN_POINT('',(302.38478182902,31.0405876160249,3.));
#2123=CARTESIAN_POINT('Origin',(354.926592631759,83.2606712755216,0.));
#2124=CARTESIAN_POINT('',(348.162,76.5375,0.));
#2125=CARTESIAN_POINT('',(354.926592631759,83.2606712755216,0.));
#2126=CARTESIAN_POINT('Origin',(348.162,76.5375,0.));
#2127=CARTESIAN_POINT('',(348.162,9.89922568768714,0.));
#2128=CARTESIAN_POINT('Origin',(348.162,9.89922568768714,0.));
#2129=CARTESIAN_POINT('',(348.062,9.89999977871776,0.));
#2130=CARTESIAN_POINT('Origin',(9.99968631608823,145.14388195364,0.));
#2131=CARTESIAN_POINT('',(9.99968631608824,145.143881953452,0.));
#2132=CARTESIAN_POINT('',(354.95588195364,145.14388195364,0.));
#2133=CARTESIAN_POINT('Origin',(354.95588195364,145.14388195364,0.));
#2134=CARTESIAN_POINT('',(354.95588195364,83.3313819536403,0.));
#2135=CARTESIAN_POINT('Origin',(354.95588195364,83.3313819536403,0.));
#2136=CARTESIAN_POINT('',(354.95588195364,83.3313819536403,0.));
#2137=CARTESIAN_POINT('Origin',(9.90000003396575,145.143801654113,0.));
#2138=CARTESIAN_POINT('',(9.90000003396575,145.143801654113,0.));
#2139=CARTESIAN_POINT('Origin',(9.90000000000001,145.044000034033,0.));
#2140=CARTESIAN_POINT('',(9.90000000000001,145.044000034033,0.));
#2141=CARTESIAN_POINT('Origin',(9.89999977871776,10.,0.));
#2142=CARTESIAN_POINT('',(9.89999977871776,10.,0.));
#2143=CARTESIAN_POINT('Origin',(9.89999977871776,9.9,0.));
#2144=CARTESIAN_POINT('Origin',(348.062,9.89999977871776,0.));
#2145=CARTESIAN_POINT('Origin',(351.062000000001,76.1232864376267,0.));
#2146=CARTESIAN_POINT('',(350.354893218814,76.8303932188135,0.));
#2147=CARTESIAN_POINT('',(350.062,76.1232864376269,0.));
#2148=CARTESIAN_POINT('Origin',(351.062000000001,76.1232864376267,0.));
#2149=CARTESIAN_POINT('',(350.354893218814,76.8303932188135,0.));
#2150=CARTESIAN_POINT('',(350.062,76.1232864376269,0.));
#2151=CARTESIAN_POINT('Origin',(350.062,9.,0.));
#2152=CARTESIAN_POINT('',(350.062,9.,0.));
#2153=CARTESIAN_POINT('',(350.062,10.,0.));
#2154=CARTESIAN_POINT('',(350.062,9.,0.));
#2155=CARTESIAN_POINT('Origin',(349.062,8.99999999999995,0.));
#2156=CARTESIAN_POINT('',(349.062,8.00000000000001,0.));
#2157=CARTESIAN_POINT('Origin',(349.062,8.99999999999995,0.));
#2158=CARTESIAN_POINT('',(349.062,8.00000000000001,0.));
#2159=CARTESIAN_POINT('Origin',(348.062,8.,0.));
#2160=CARTESIAN_POINT('',(348.062,8.,0.));
#2161=CARTESIAN_POINT('',(349.062,8.00000000000001,0.));
#2162=CARTESIAN_POINT('',(348.062,8.,0.));
#2163=CARTESIAN_POINT('Origin',(10.,8.00000011920929,0.));
#2164=CARTESIAN_POINT('',(10.,8.00000011920929,0.));
#2165=CARTESIAN_POINT('',(10.,8.00000011920929,0.));
#2166=CARTESIAN_POINT('',(10.,8.00000011920929,0.));
#2167=CARTESIAN_POINT('Origin',(9.00000011920929,8.00000011920929,0.));
#2168=CARTESIAN_POINT('',(9.00000011920929,8.00000011920929,0.));
#2169=CARTESIAN_POINT('',(9.00000011920929,8.00000011920929,0.));
#2170=CARTESIAN_POINT('',(9.00000011920929,8.00000011920929,0.));
#2171=CARTESIAN_POINT('Origin',(9.00000011920929,9.00000011920929,0.));
#2172=CARTESIAN_POINT('',(8.00000011920929,9.00000011920929,0.));
#2173=CARTESIAN_POINT('Origin',(9.00000011920929,9.00000011920929,0.));
#2174=CARTESIAN_POINT('',(8.00000011920929,9.00000011920929,0.));
#2175=CARTESIAN_POINT('Origin',(8.00000011920929,10.,0.));
#2176=CARTESIAN_POINT('',(8.00000011920929,10.,0.));
#2177=CARTESIAN_POINT('',(8.00000011920929,10.,0.));
#2178=CARTESIAN_POINT('',(8.00000011920929,10.,0.));
#2179=CARTESIAN_POINT('Origin',(8.,145.044,0.));
#2180=CARTESIAN_POINT('',(8.,145.044,0.));
#2181=CARTESIAN_POINT('',(8.,145.044,0.));
#2182=CARTESIAN_POINT('',(8.,145.044,0.));
#2183=CARTESIAN_POINT('Origin',(7.99999999999999,146.043999659667,0.));
#2184=CARTESIAN_POINT('',(7.99999999999999,146.043999659667,0.));
#2185=CARTESIAN_POINT('',(8.,145.044,0.));
#2186=CARTESIAN_POINT('',(7.99999999999999,146.043999659667,0.));
#2187=CARTESIAN_POINT('Origin',(8.99999999999999,146.043999659667,0.));
#2188=CARTESIAN_POINT('Origin',(8.99999999999999,146.043999659667,0.));
#2189=CARTESIAN_POINT('Origin',(355.85588195364,147.04388195364,0.));
#2190=CARTESIAN_POINT('',(355.85588195364,147.04388195364,0.));
#2191=CARTESIAN_POINT('',(355.85588195364,147.04388195364,0.));
#2192=CARTESIAN_POINT('',(355.85588195364,147.04388195364,0.));
#2193=CARTESIAN_POINT('Origin',(355.85588195364,146.04388195364,0.));
#2194=CARTESIAN_POINT('',(356.85588195364,146.04388195364,0.));
#2195=CARTESIAN_POINT('Origin',(355.85588195364,146.04388195364,0.));
#2196=CARTESIAN_POINT('',(356.85588195364,146.04388195364,0.));
#2197=CARTESIAN_POINT('Origin',(356.85588195364,83.7455955160134,0.));
#2198=CARTESIAN_POINT('',(356.85588195364,83.7455955160134,0.));
#2199=CARTESIAN_POINT('',(356.85588195364,83.7455955160134,0.));
#2200=CARTESIAN_POINT('',(356.85588195364,83.7455955160134,0.));
#2201=CARTESIAN_POINT('Origin',(355.85588195364,83.7455955160136,0.));
#2202=CARTESIAN_POINT('',(356.562988734827,83.0384887348268,0.));
#2203=CARTESIAN_POINT('Origin',(355.85588195364,83.7455955160136,0.));
#2204=CARTESIAN_POINT('',(356.562988734827,83.0384887348268,0.));
#2205=CARTESIAN_POINT('Origin',(350.354893218814,76.8303932188135,0.));
#2206=CARTESIAN_POINT('',(350.354893218814,76.8303932188135,0.));
#2207=CARTESIAN_POINT('Origin',(112.749999963407,35.5053223770301,1.));
#2208=CARTESIAN_POINT('Origin',(112.749999963407,35.5053223770301,0.));
#2209=UNCERTAINTY_MEASURE_WITH_UNIT(LENGTH_MEASURE(0.01),#2213,
'DISTANCE_ACCURACY_VALUE',
'Maximum model space distance between geometric entities at asserted c
onnectivities');
#2210=UNCERTAINTY_MEASURE_WITH_UNIT(LENGTH_MEASURE(0.01),#2213,
'DISTANCE_ACCURACY_VALUE',
'Maximum model space distance between geometric entities at asserted c
onnectivities');
#2211=(
GEOMETRIC_REPRESENTATION_CONTEXT(3)
GLOBAL_UNCERTAINTY_ASSIGNED_CONTEXT((#2209))
GLOBAL_UNIT_ASSIGNED_CONTEXT((#2213,#2214,#2215))
REPRESENTATION_CONTEXT('','3D')
);
#2212=(
GEOMETRIC_REPRESENTATION_CONTEXT(3)
GLOBAL_UNCERTAINTY_ASSIGNED_CONTEXT((#2210))
GLOBAL_UNIT_ASSIGNED_CONTEXT((#2213,#2214,#2215))
REPRESENTATION_CONTEXT('','3D')
);
#2213=(
LENGTH_UNIT()
NAMED_UNIT(*)
SI_UNIT(.MILLI.,.METRE.)
);
#2214=(
NAMED_UNIT(*)
PLANE_ANGLE_UNIT()
SI_UNIT($,.RADIAN.)
);
#2215=(
NAMED_UNIT(*)
SI_UNIT($,.STERADIAN.)
SOLID_ANGLE_UNIT()
);
#2216=SHAPE_DEFINITION_REPRESENTATION(#2217,#2218);
#2217=PRODUCT_DEFINITION_SHAPE('',$,#2220);
#2218=SHAPE_REPRESENTATION('',(#1343),#2211);
#2219=PRODUCT_DEFINITION_CONTEXT('part definition',#2224,'design');
#2220=PRODUCT_DEFINITION('casev2','casev2 v2',#2221,#2219);
#2221=PRODUCT_DEFINITION_FORMATION('',$,#2226);
#2222=PRODUCT_RELATED_PRODUCT_CATEGORY('casev2 v2','casev2 v2',(#2226));
#2223=APPLICATION_PROTOCOL_DEFINITION('international standard',
'automotive_design',2009,#2224);
#2224=APPLICATION_CONTEXT(
'Core Data for Automotive Mechanical Design Process');
#2225=PRODUCT_CONTEXT('part definition',#2224,'mechanical');
#2226=PRODUCT('casev2','casev2 v2',$,(#2225));
#2227=PRESENTATION_STYLE_ASSIGNMENT((#2228));
#2228=SURFACE_STYLE_USAGE(.BOTH.,#2229);
#2229=SURFACE_SIDE_STYLE('',(#2230));
#2230=SURFACE_STYLE_FILL_AREA(#2231);
#2231=FILL_AREA_STYLE('Steel - Satin',(#2232));
#2232=FILL_AREA_STYLE_COLOUR('Steel - Satin',#2233);
#2233=COLOUR_RGB('Steel - Satin',0.627450980392157,0.627450980392157,0.627450980392157);
ENDSEC;
END-ISO-10303-21;
